<svg xmlns="http://www.w3.org/2000/svg" viewBox="0 0 1926 1229.77"><defs><style>.cls-1{fill:#bbbcbb;}.cls-1,.cls-2,.cls-20,.cls-21,.cls-22,.cls-23,.cls-24,.cls-25,.cls-26,.cls-27,.cls-28,.cls-29,.cls-30,.cls-31,.cls-32,.cls-33,.cls-34,.cls-35,.cls-36,.cls-37,.cls-38,.cls-39,.cls-40,.cls-41,.cls-42,.cls-43,.cls-6{stroke:#999898;}.cls-1,.cls-10,.cls-11,.cls-12,.cls-13,.cls-14,.cls-17,.cls-19,.cls-2,.cls-20,.cls-21,.cls-22,.cls-23,.cls-24,.cls-25,.cls-26,.cls-27,.cls-28,.cls-29,.cls-3,.cls-30,.cls-31,.cls-32,.cls-33,.cls-34,.cls-35,.cls-36,.cls-37,.cls-38,.cls-39,.cls-4,.cls-40,.cls-41,.cls-42,.cls-43,.cls-5,.cls-6,.cls-7,.cls-8,.cls-9{stroke-miterlimit:10;}.cls-2{fill:#cfd3cf;}.cls-3{fill:#919191;stroke:#3f3f3f;}.cls-17,.cls-19,.cls-4,.cls-5{fill:#fff;}.cls-4{stroke:#fff;}.cls-5{stroke:#fcfcfc;}.cls-6{fill:none;}.cls-7{fill:#2adbc6;}.cls-10,.cls-11,.cls-12,.cls-13,.cls-14,.cls-7,.cls-8,.cls-9{stroke:#000;}.cls-8{fill:#00b79c;}.cls-9{fill:#bf9f00;}.cls-10{fill:#e0bf00;}.cls-11{fill:#9b8100;}.cls-12{fill:#8e3191;}.cls-13{fill:#8f3691;}.cls-14{fill:#930793;}.cls-15,.cls-17{font-size:204px;font-family:Akashi;}.cls-15,.cls-44{fill:#b58500;}.cls-16{letter-spacing:0.06em;}.cls-17,.cls-19{stroke:#afafaf;}.cls-18{letter-spacing:0.04em;}.cls-20{fill:#f7082b;}.cls-21{fill:#c6092d;}.cls-22{fill:#a50726;}.cls-23{fill:#c17110;}.cls-24{fill:#b76711;}.cls-25{fill:#965a0b;}.cls-26{fill:#0619fc;}.cls-27{fill:#061fce;}.cls-28{fill:#051799;}.cls-29{fill:#fc06c2;}.cls-30{fill:#c408aa;}.cls-31{fill:#b50694;}.cls-32{fill:#95f908;}.cls-33{fill:#79c108;}.cls-34{fill:#5c9306;}.cls-35{fill:#b7f708;}.cls-36{fill:#a7d309;}.cls-37{fill:#85a807;}.cls-38{fill:#fc8606;}.cls-39{fill:#c46208;}.cls-40{fill:#9b5005;}.cls-41{fill:#06ddf9;}.cls-42{fill:#06b7c4;}.cls-43{fill:#059faa;}</style></defs><title>Recurso 12</title><g id="Capa_2" data-name="Capa 2"><g id="Capa_1-2" data-name="Capa 1"><polygon class="cls-1" points="977.26 702.24 871.93 745.55 865.98 868.12 976.92 818.06 977.26 702.24"/><polygon class="cls-2" points="983.15 701.89 1082.04 742.38 1082.73 861.64 983.15 820.65 983.15 701.89"/><polygon class="cls-3" points="976.36 818.63 871.92 867.01 976.36 904.65 1080.81 867.01 976.36 818.63"/><path class="cls-4" d="M973,813.26a3.1,3.1,0,0,1-1.36,1.37l3.76,8.32,111.05,46.31c1.35-.6,2.8-1,4.22-1.51v-5.41Z"/><path class="cls-4" d="M982.14,813.26,863.28,862.83v4.78c1.56.66,3.1,1.43,4.69,1.95l110.48-46.08,4.21-9.3A3.64,3.64,0,0,1,982.14,813.26Z"/><polyline class="cls-4" points="970.75 824.78 970.75 701.9 983.03 701.9 983.03 821.33"/><polyline class="cls-4" points="863.48 867.78 863.48 744.9 872.33 744.9 872.33 864.34"/><path class="cls-4" d="M1090.52,749.85c-.14-2.24.27-4.57,0-6.79L977.32,695.85a27,27,0,0,1-4.36,1.53l-.53.2,2.74,6.06,115.54,48.19C1090.63,751.17,1090.57,750.51,1090.52,749.85Z"/><path class="cls-5" d="M978.91,696.4c-.53-.17-1-.35-1.55-.55l-114,47.52v2c0,2.18.19,4.42.1,6.63l114.73-47.85,3.07-6.81A19.55,19.55,0,0,1,978.91,696.4Z"/><path class="cls-4" d="M1090.67,858.86,964.73,905h0c3.92,1.34,7.88,2.58,11.69,4.23l114.2-41.88C1090.63,864.55,1090.6,861.7,1090.67,858.86Z"/><path class="cls-4" d="M863.32,859.05v8.54l113.32,41.55.08,0c2.17-.73,4.24-1.77,6.45-2.38l.14,0c1.43-.69,2.85-1.39,4.29-2.07Z"/><line class="cls-6" x1="976.62" y1="695.41" x2="976.62" y2="818.29"/><line class="cls-6" x1="977.26" y1="818.97" x2="860.52" y2="868.12"/><line class="cls-6" x1="976.57" y1="818.97" x2="1093.31" y2="868.12"/><polyline class="cls-4" points="1081.58 867.92 1081.58 745.05 1090.43 745.05 1090.43 864.48"/><polygon class="cls-1" points="1087.62 659.84 982.29 703.15 976.34 825.73 1087.28 775.66 1087.62 659.84"/><polygon class="cls-2" points="1093.51 659.5 1192.4 699.99 1193.09 819.24 1093.51 778.25 1093.51 659.5"/><polygon class="cls-3" points="1086.72 776.23 982.27 824.62 1086.72 862.25 1191.17 824.62 1086.72 776.23"/><path class="cls-4" d="M1083.35,770.86a3.1,3.1,0,0,1-1.36,1.37l3.76,8.32,111,46.31c1.35-.59,2.8-1,4.22-1.51v-5.41Z"/><path class="cls-4" d="M1092.5,770.86,973.64,820.43v4.78c1.56.67,3.1,1.44,4.69,1.95l110.48-46.07,4.21-9.31A3.35,3.35,0,0,1,1092.5,770.86Z"/><polyline class="cls-4" points="1081.1 782.38 1081.1 659.5 1093.39 659.5 1093.39 778.94"/><polyline class="cls-4" points="973.84 825.38 973.84 702.51 982.69 702.51 982.69 821.94"/><path class="cls-4" d="M1200.88,707.45c-.14-2.23.27-4.56,0-6.79l-113.2-47.21a27,27,0,0,1-4.36,1.53l-.53.2,2.74,6.06,115.54,48.19C1201,708.77,1200.93,708.11,1200.88,707.45Z"/><path class="cls-5" d="M1089.27,654c-.53-.16-1-.34-1.55-.55L973.76,701v2c0,2.18.19,4.42.1,6.63l114.73-47.85,3.07-6.81A19.55,19.55,0,0,1,1089.27,654Z"/><path class="cls-4" d="M1201,816.46l-125.93,46.18h0c3.92,1.34,7.88,2.58,11.69,4.23L1201,825C1201,822.15,1201,819.31,1201,816.46Z"/><path class="cls-4" d="M973.68,816.65v8.54L1087,866.74l.08,0c2.17-.73,4.24-1.76,6.45-2.38l.14,0c1.43-.69,2.85-1.39,4.29-2.07Z"/><polyline class="cls-4" points="1191.94 825.53 1191.94 702.65 1200.79 702.65 1200.79 822.08"/><polygon class="cls-2" points="866.22 659.84 971.55 703.15 977.49 825.73 866.56 775.66 866.22 659.84"/><polygon class="cls-1" points="860.32 659.5 761.44 699.99 760.74 819.24 860.32 778.25 860.32 659.5"/><polygon class="cls-3" points="867.11 776.23 971.56 824.62 867.11 862.25 762.66 824.62 867.11 776.23"/><path class="cls-4" d="M870.49,770.86a3,3,0,0,0,1.35,1.37l-3.76,8.32L757,826.86c-1.36-.59-2.8-1-4.23-1.51v-5.41Z"/><path class="cls-4" d="M861.33,770.86l118.86,49.57v4.78c-1.56.67-3.1,1.44-4.68,1.95L865,781.09l-4.2-9.31A3.32,3.32,0,0,0,861.33,770.86Z"/><polyline class="cls-4" points="872.73 782.38 872.73 659.5 860.44 659.5 860.44 778.94"/><polyline class="cls-4" points="979.99 825.38 979.99 702.51 971.14 702.51 971.14 821.94"/><path class="cls-4" d="M753,707.45c.14-2.23-.27-4.56,0-6.79l113.21-47.21a26.55,26.55,0,0,0,4.35,1.53l.53.2-2.74,6.06L752.76,709.43C752.84,708.77,752.91,708.11,753,707.45Z"/><path class="cls-5" d="M864.56,654a15.79,15.79,0,0,0,1.55-.55l114,47.52v2c0,2.18-.19,4.42-.1,6.63L865.25,661.77,862.17,655A19.55,19.55,0,0,0,864.56,654Z"/><path class="cls-4" d="M752.81,816.46l125.93,46.18h0c-3.92,1.34-7.88,2.58-11.68,4.23L752.82,825C752.84,822.15,752.87,819.31,752.81,816.46Z"/><path class="cls-4" d="M980.15,816.65v8.54L866.84,866.74l-.09,0c-2.17-.73-4.24-1.76-6.45-2.38l-.14,0c-1.43-.69-2.85-1.39-4.29-2.07Z"/><line class="cls-6" x1="866.86" y1="653.01" x2="866.86" y2="775.89"/><line class="cls-6" x1="866.22" y1="776.57" x2="982.95" y2="825.73"/><line class="cls-6" x1="866.9" y1="776.57" x2="750.16" y2="825.73"/><polyline class="cls-4" points="761.89 825.53 761.89 702.65 753.04 702.65 753.04 822.08"/><polygon class="cls-1" points="977.35 615.51 872.02 658.83 866.08 781.4 977.01 731.34 977.35 615.51"/><polygon class="cls-2" points="983.24 615.17 1082.13 655.66 1082.82 774.92 983.24 733.93 983.24 615.17"/><polygon class="cls-3" points="976.46 731.91 872.01 780.29 976.46 817.92 1080.91 780.29 976.46 731.91"/><path class="cls-4" d="M973.08,726.54a3,3,0,0,1-1.35,1.36l3.76,8.33,111,46.31c1.36-.6,2.8-1,4.23-1.51v-5.42Z"/><path class="cls-4" d="M982.24,726.54,863.38,776.11v4.78c1.56.66,3.1,1.43,4.68,2l110.49-46.08,4.2-9.3A3.32,3.32,0,0,1,982.24,726.54Z"/><polyline class="cls-4" points="970.84 738.05 970.84 615.18 983.13 615.18 983.13 734.61"/><polyline class="cls-4" points="863.58 781.06 863.58 658.18 872.43 658.18 872.43 777.62"/><path class="cls-4" d="M1090.62,663.12c-.14-2.23.26-4.56,0-6.78L977.41,609.13a27.27,27.27,0,0,1-4.36,1.53l-.52.2,2.73,6.06,115.55,48.18C1090.73,664.45,1090.66,663.79,1090.62,663.12Z"/><path class="cls-5" d="M979,609.68c-.52-.17-1-.35-1.54-.55l-114,47.52v2c0,2.18.19,4.42.1,6.63l114.72-47.85,3.08-6.81A19.06,19.06,0,0,1,979,609.68Z"/><path class="cls-4" d="M1090.76,772.14,964.83,818.31l0,0c3.93,1.34,7.88,2.57,11.69,4.23l114.21-41.88C1090.73,777.83,1090.7,775,1090.76,772.14Z"/><path class="cls-4" d="M863.42,772.33v8.54l113.31,41.55.08,0c2.18-.73,4.25-1.77,6.46-2.38l.14,0c1.43-.69,2.85-1.4,4.28-2.07Z"/><polyline class="cls-4" points="1081.68 781.2 1081.68 658.33 1090.53 658.33 1090.53 777.76"/><polygon class="cls-2" points="749.58 376.72 854.91 420.03 860.85 542.6 749.92 492.54 749.58 376.72"/><polygon class="cls-1" points="743.68 376.37 644.8 416.87 644.11 536.12 743.68 495.13 743.68 376.37"/><polygon class="cls-3" points="750.47 493.11 854.92 541.49 750.47 579.13 646.02 541.49 750.47 493.11"/><path class="cls-4" d="M753.85,487.74a3,3,0,0,0,1.35,1.36l-3.76,8.33-111,46.31c-1.36-.6-2.8-1-4.23-1.51v-5.42Z"/><path class="cls-4" d="M744.69,487.74l118.86,49.57v4.78c-1.56.66-3.1,1.43-4.68,1.95L748.38,498l-4.2-9.3A3.32,3.32,0,0,0,744.69,487.74Z"/><polyline class="cls-4" points="756.09 499.25 756.09 376.38 743.8 376.38 743.8 495.81"/><polyline class="cls-4" points="863.35 542.26 863.35 419.38 854.5 419.38 854.5 538.82"/><path class="cls-4" d="M636.31,424.32c.14-2.23-.26-4.56,0-6.78l113.21-47.21a27.51,27.51,0,0,0,4.35,1.53l.53.2-2.74,6.06L636.12,426.3C636.2,425.65,636.27,425,636.31,424.32Z"/><path class="cls-5" d="M747.92,370.88c.53-.17,1.05-.35,1.55-.55l114,47.52v2c0,2.18-.19,4.42-.1,6.63L748.61,378.65l-3.08-6.81A18.92,18.92,0,0,0,747.92,370.88Z"/><path class="cls-4" d="M636.17,533.34,762.1,579.52h0c-3.92,1.34-7.88,2.57-11.68,4.23L636.18,541.88C636.2,539,636.23,536.18,636.17,533.34Z"/><path class="cls-4" d="M863.51,533.53v8.54L750.2,583.62l-.09,0c-2.17-.73-4.24-1.77-6.45-2.38l-.14,0c-1.43-.69-2.85-1.4-4.29-2.07Z"/><polyline class="cls-4" points="645.25 542.4 645.25 419.53 636.4 419.53 636.4 538.96"/><polygon class="cls-1" points="1081.7 333.61 976.37 376.93 970.43 499.5 1081.36 449.43 1081.7 333.61"/><polygon class="cls-2" points="1087.6 333.27 1186.48 373.76 1187.18 493.01 1087.6 452.03 1087.6 333.27"/><polygon class="cls-3" points="1080.81 450.01 976.36 498.39 1080.81 536.02 1185.26 498.39 1080.81 450.01"/><path class="cls-4" d="M1077.43,444.64a3,3,0,0,1-1.35,1.36l3.76,8.33,111,46.31c1.36-.6,2.8-1,4.23-1.51v-5.42Z"/><path class="cls-4" d="M1086.59,444.63,967.73,494.2V499c1.56.66,3.1,1.43,4.68,1.95l110.49-46.08,4.2-9.31A3.06,3.06,0,0,1,1086.59,444.63Z"/><polyline class="cls-4" points="1075.19 456.15 1075.19 333.27 1087.48 333.27 1087.48 452.71"/><polyline class="cls-4" points="967.93 499.16 967.93 376.28 976.78 376.28 976.78 495.71"/><path class="cls-4" d="M1195,381.22c-.14-2.23.27-4.56,0-6.78l-113.21-47.22a25.64,25.64,0,0,1-4.35,1.53l-.53.21,2.74,6.06,115.54,48.18C1195.08,382.54,1195,381.88,1195,381.22Z"/><path class="cls-5" d="M1083.36,327.78c-.53-.17-1-.35-1.55-.56l-114,47.53v2c0,2.18.19,4.43.1,6.63l114.72-47.84,3.08-6.81A19.55,19.55,0,0,1,1083.36,327.78Z"/><path class="cls-4" d="M1195.11,490.23l-125.93,46.18,0,0c3.92,1.33,7.88,2.57,11.69,4.23l114.2-41.88C1195.08,495.93,1195.05,493.08,1195.11,490.23Z"/><path class="cls-4" d="M967.77,490.43V499l113.32,41.55a.19.19,0,0,1,.08,0c2.17-.74,4.24-1.77,6.45-2.39l.14,0c1.43-.69,2.85-1.4,4.29-2.07Z"/><polyline class="cls-4" points="1186.03 499.3 1186.03 376.42 1194.88 376.42 1194.88 495.86"/><polygon class="cls-7" points="971.44 210.1 866.11 253.41 860.17 375.99 971.1 325.92 971.44 210.1"/><polygon class="cls-8" points="977.33 209.76 1076.22 250.25 1076.91 369.5 977.33 328.51 977.33 209.76"/><polygon class="cls-8" points="970.55 326.49 866.1 374.88 970.55 412.51 1074.99 374.88 970.55 326.49"/><path class="cls-4" d="M967.17,321.12a3,3,0,0,1-1.35,1.37l3.76,8.32,111,46.31c1.36-.59,2.8-1,4.23-1.51V370.2Z"/><path class="cls-4" d="M976.33,321.12,857.46,370.69v4.78c1.57.67,3.11,1.44,4.69,1.95l110.49-46.07,4.2-9.31A3.19,3.19,0,0,1,976.33,321.12Z"/><polyline class="cls-4" points="964.93 332.64 964.93 209.76 977.22 209.76 977.22 329.2"/><polyline class="cls-4" points="857.67 375.64 857.67 252.77 866.52 252.77 866.52 372.2"/><path class="cls-4" d="M1084.71,257.71c-.15-2.23.26-4.56,0-6.78L971.5,203.71a26.33,26.33,0,0,1-4.36,1.53l-.53.2,2.74,6.06,115.55,48.19C1084.82,259,1084.75,258.37,1084.71,257.71Z"/><path class="cls-5" d="M973.09,204.26c-.52-.16-1-.34-1.54-.55l-114,47.53v2c0,2.18.18,4.42.1,6.63L972.41,212l3.08-6.82A19.06,19.06,0,0,1,973.09,204.26Z"/><path class="cls-4" d="M1084.85,366.72,958.92,412.9h0c3.93,1.34,7.88,2.58,11.69,4.23l114.21-41.87C1084.82,372.41,1084.78,369.57,1084.85,366.72Z"/><path class="cls-4" d="M857.5,366.91v8.54L970.82,417l.08,0c2.17-.73,4.25-1.76,6.45-2.38l.15,0c1.42-.69,2.85-1.4,4.28-2.08Z"/><polyline class="cls-4" points="1075.77 375.79 1075.77 252.91 1084.61 252.91 1084.61 372.35"/><polygon class="cls-1" points="1191.95 499.51 1086.62 542.82 1080.68 665.4 1191.61 615.33 1191.95 499.51"/><polygon class="cls-2" points="1197.85 499.17 1296.73 539.66 1297.43 658.91 1197.85 617.92 1197.85 499.17"/><polygon class="cls-3" points="1191.06 615.9 1086.61 664.29 1191.06 701.92 1295.51 664.29 1191.06 615.9"/><path class="cls-4" d="M1187.68,610.53a3,3,0,0,1-1.35,1.37l3.76,8.32,111,46.31c1.36-.59,2.8-1,4.23-1.51v-5.41Z"/><path class="cls-4" d="M1196.84,610.53,1078,660.1v4.78c1.56.67,3.1,1.44,4.68,2l110.49-46.07,4.2-9.31A3.32,3.32,0,0,1,1196.84,610.53Z"/><polyline class="cls-4" points="1185.44 622.05 1185.44 499.17 1197.73 499.17 1197.73 618.61"/><polyline class="cls-4" points="1078.18 665.05 1078.18 542.18 1087.03 542.18 1087.03 661.61"/><path class="cls-4" d="M1305.22,547.12c-.14-2.23.27-4.56,0-6.79L1192,493.12a26.55,26.55,0,0,1-4.35,1.53l-.53.2,2.74,6.06,115.54,48.19C1305.33,548.44,1305.26,547.78,1305.22,547.12Z"/><path class="cls-5" d="M1193.61,493.67a15.79,15.79,0,0,1-1.55-.55l-114,47.52v2c0,2.18.19,4.42.1,6.63l114.72-47.85,3.08-6.81A19.55,19.55,0,0,1,1193.61,493.67Z"/><path class="cls-4" d="M1305.36,656.13l-125.93,46.18h0c3.92,1.34,7.88,2.58,11.69,4.23l114.2-41.88C1305.33,661.82,1305.3,659,1305.36,656.13Z"/><path class="cls-4" d="M1078,656.32v8.54l113.32,41.55.08,0c2.17-.73,4.24-1.76,6.45-2.38l.14,0c1.43-.69,2.85-1.39,4.29-2.07Z"/><polyline class="cls-4" points="1296.28 665.2 1296.28 542.32 1305.13 542.32 1305.13 661.75"/><polygon class="cls-9" points="626.9 512.48 732.23 555.79 738.17 678.37 627.24 628.3 626.9 512.48"/><polygon class="cls-10" points="621.01 512.14 522.12 552.63 521.43 671.88 621.01 630.89 621.01 512.14"/><polygon class="cls-11" points="627.8 628.87 732.24 677.26 627.8 714.89 523.35 677.26 627.8 628.87"/><path class="cls-4" d="M631.17,623.5a3.05,3.05,0,0,0,1.36,1.37l-3.76,8.32-111,46.31c-1.35-.59-2.8-1-4.22-1.51v-5.41Z"/><path class="cls-4" d="M622,623.5l118.86,49.57v4.78c-1.56.67-3.1,1.44-4.69,1.95L625.71,633.73l-4.21-9.31A3.64,3.64,0,0,0,622,623.5Z"/><polyline class="cls-4" points="633.41 635.02 633.41 512.14 621.13 512.14 621.13 631.58"/><polyline class="cls-4" points="740.67 678.02 740.67 555.15 731.83 555.15 731.83 674.58"/><path class="cls-4" d="M513.63,560.09c.15-2.23-.26-4.56,0-6.79l113.21-47.21a27,27,0,0,0,4.36,1.53l.53.2L629,513.88,513.45,562.07C513.52,561.41,513.59,560.75,513.63,560.09Z"/><path class="cls-5" d="M625.25,506.64c.52-.16,1-.34,1.55-.55l114,47.52v2c0,2.18-.19,4.42-.1,6.63L625.93,514.41l-3.08-6.81A19.06,19.06,0,0,0,625.25,506.64Z"/><path class="cls-4" d="M513.49,669.1l125.94,46.18h0c-3.93,1.34-7.88,2.58-11.69,4.23l-114.2-41.88C513.52,674.79,513.56,672,513.49,669.1Z"/><path class="cls-4" d="M740.84,669.29v8.54L627.52,719.38l-.08,0c-2.17-.73-4.24-1.76-6.45-2.38l-.14,0c-1.43-.7-2.85-1.4-4.29-2.08Z"/><polyline class="cls-4" points="522.58 678.17 522.58 555.29 513.73 555.29 513.73 674.73"/><polygon class="cls-2" points="859.83 456.4 965.16 499.72 971.1 622.29 860.17 572.23 859.83 456.4"/><polygon class="cls-1" points="853.93 456.06 755.05 496.55 754.36 615.81 853.93 574.82 853.93 456.06"/><polygon class="cls-3" points="860.72 572.8 965.17 621.18 860.72 658.82 756.27 621.18 860.72 572.8"/><path class="cls-4" d="M864.1,567.43a3,3,0,0,0,1.35,1.36l-3.76,8.33-111,46.31c-1.36-.6-2.8-1-4.23-1.51V616.5Z"/><path class="cls-4" d="M854.94,567.43,973.8,617v4.78c-1.56.66-3.1,1.43-4.68,2L858.63,577.65l-4.2-9.3A3.32,3.32,0,0,0,854.94,567.43Z"/><polyline class="cls-4" points="866.34 578.95 866.34 456.07 854.05 456.07 854.05 575.5"/><polyline class="cls-4" points="973.6 621.95 973.6 499.07 964.75 499.07 964.75 618.51"/><path class="cls-4" d="M746.56,504c.14-2.23-.26-4.56,0-6.78L859.77,450a27.51,27.51,0,0,0,4.35,1.53l.53.2-2.74,6.06L746.37,506C746.45,505.34,746.52,504.68,746.56,504Z"/><path class="cls-5" d="M858.17,450.57c.53-.17,1.05-.35,1.55-.55l114,47.52v2c0,2.18-.19,4.42-.1,6.63L858.86,458.34l-3.08-6.81A18.92,18.92,0,0,0,858.17,450.57Z"/><path class="cls-4" d="M746.42,613,872.35,659.2l0,0c-3.92,1.34-7.88,2.57-11.68,4.23L746.43,621.57C746.45,618.72,746.48,615.87,746.42,613Z"/><path class="cls-4" d="M973.76,613.22v8.54L860.45,663.31l-.09,0c-2.17-.73-4.24-1.77-6.45-2.38l-.14,0c-1.43-.69-2.85-1.4-4.29-2.07Z"/><polyline class="cls-4" points="755.5 622.09 755.5 499.22 746.65 499.22 746.65 618.65"/><polygon class="cls-1" points="970.96 412.08 865.63 455.39 859.69 577.97 970.62 527.9 970.96 412.08"/><polygon class="cls-2" points="976.86 411.74 1075.74 452.23 1076.43 571.48 976.86 530.5 976.86 411.74"/><polygon class="cls-3" points="970.07 528.48 865.62 576.86 970.07 614.49 1074.52 576.86 970.07 528.48"/><path class="cls-4" d="M966.69,523.11a3.06,3.06,0,0,1-1.35,1.36l3.76,8.33,111,46.31c1.36-.6,2.8-1,4.23-1.51v-5.42Z"/><path class="cls-4" d="M975.85,523.1,857,572.67v4.79c1.56.66,3.1,1.43,4.68,1.95l110.49-46.08,4.2-9.31A3.06,3.06,0,0,1,975.85,523.1Z"/><polyline class="cls-4" points="964.45 534.62 964.45 411.74 976.74 411.74 976.74 531.18"/><polyline class="cls-4" points="857.19 577.63 857.19 454.75 866.04 454.75 866.04 574.18"/><path class="cls-4" d="M1084.23,459.69c-.14-2.23.26-4.56,0-6.78L971,405.69a25.44,25.44,0,0,1-4.36,1.53l-.52.21,2.73,6.05,115.55,48.19C1084.34,461,1084.27,460.35,1084.23,459.69Z"/><path class="cls-5" d="M972.61,406.25c-.52-.17-1-.35-1.54-.56l-114,47.53v2c0,2.18.19,4.43.1,6.63L971.93,414l3.08-6.81A19.06,19.06,0,0,1,972.61,406.25Z"/><path class="cls-4" d="M1084.37,568.7,958.44,614.88l0,0c3.93,1.33,7.88,2.57,11.69,4.22l114.21-41.87C1084.34,574.4,1084.31,571.55,1084.37,568.7Z"/><path class="cls-4" d="M857,568.9v8.53L970.34,619l.08,0c2.18-.73,4.25-1.76,6.46-2.38l.14,0c1.43-.69,2.85-1.4,4.28-2.07Z"/><polyline class="cls-4" points="1075.29 577.77 1075.29 454.89 1084.14 454.89 1084.14 574.33"/><polygon class="cls-12" points="1278.65 646.28 1173.32 689.59 1167.38 812.17 1278.31 762.1 1278.65 646.28"/><polygon class="cls-13" points="1284.54 645.94 1383.43 686.43 1384.12 805.68 1284.54 764.7 1284.54 645.94"/><polygon class="cls-14" points="1277.76 762.67 1173.31 811.06 1277.76 848.69 1382.21 811.06 1277.76 762.67"/><path class="cls-4" d="M1274.38,757.3a3,3,0,0,1-1.35,1.37l3.76,8.33,111,46.3c1.36-.59,2.8-1,4.23-1.5v-5.42Z"/><path class="cls-4" d="M1283.54,757.3l-118.86,49.57v4.78c1.56.67,3.1,1.44,4.68,2l110.49-46.08,4.2-9.31A3.19,3.19,0,0,1,1283.54,757.3Z"/><polyline class="cls-4" points="1272.14 768.82 1272.14 645.94 1284.43 645.94 1284.43 765.38"/><polyline class="cls-4" points="1164.88 811.83 1164.88 688.95 1173.73 688.95 1173.73 808.38"/><path class="cls-4" d="M1391.92,693.89c-.14-2.23.26-4.56,0-6.78l-113.21-47.22a26.33,26.33,0,0,1-4.36,1.53l-.52.2,2.73,6.06,115.55,48.19C1392,695.21,1392,694.55,1391.92,693.89Z"/><path class="cls-5" d="M1280.3,640.44c-.52-.16-1-.34-1.54-.55l-114,47.53v2c0,2.18.19,4.43.1,6.63l114.72-47.84,3.08-6.81A19.12,19.12,0,0,1,1280.3,640.44Z"/><path class="cls-4" d="M1392.06,802.9l-125.93,46.18,0,0c3.93,1.33,7.88,2.57,11.69,4.22l114.21-41.87C1392,808.6,1392,805.75,1392.06,802.9Z"/><path class="cls-4" d="M1164.72,803.09v8.54L1278,853.19l.08,0c2.18-.73,4.25-1.76,6.46-2.38l.14,0c1.43-.69,2.85-1.4,4.28-2.07Z"/><polyline class="cls-4" points="1382.98 811.97 1382.98 689.09 1391.83 689.09 1391.83 808.53"/><polygon class="cls-2" points="749.78 616.93 855.11 660.24 861.05 782.81 750.12 732.75 749.78 616.93"/><polygon class="cls-1" points="743.89 616.59 645 657.08 644.31 776.33 743.89 735.34 743.89 616.59"/><polygon class="cls-3" points="750.67 733.32 855.12 781.7 750.67 819.34 646.23 781.7 750.67 733.32"/><path class="cls-4" d="M754.05,728a3.05,3.05,0,0,0,1.36,1.37l-3.77,8.32L640.6,784c-1.35-.6-2.8-1-4.22-1.51V777Z"/><path class="cls-4" d="M744.9,728l118.86,49.57v4.78c-1.56.66-3.1,1.43-4.69,2L748.59,738.17l-4.21-9.3A3.64,3.64,0,0,0,744.9,728Z"/><polyline class="cls-4" points="756.29 739.47 756.29 616.59 744 616.59 744 736.02"/><polyline class="cls-4" points="863.55 782.47 863.55 659.59 854.71 659.59 854.71 779.03"/><path class="cls-4" d="M636.51,664.54c.15-2.24-.26-4.57,0-6.79l113.21-47.21a27,27,0,0,0,4.36,1.53l.53.2-2.74,6.06L636.33,666.52C636.4,665.86,636.47,665.2,636.51,664.54Z"/><path class="cls-5" d="M748.13,611.09c.52-.17,1-.35,1.55-.55l114,47.52v2c0,2.18-.19,4.42-.1,6.63L748.81,618.86l-3.08-6.81A19.06,19.06,0,0,0,748.13,611.09Z"/><path class="cls-4" d="M636.37,773.55l125.94,46.18h0c-3.93,1.34-7.88,2.58-11.69,4.23l-114.2-41.88C636.4,779.24,636.44,776.39,636.37,773.55Z"/><path class="cls-4" d="M863.72,773.74v8.54L750.4,823.83l-.08,0c-2.17-.73-4.24-1.77-6.45-2.38l-.14,0c-1.43-.69-2.85-1.39-4.29-2.07Z"/><polyline class="cls-4" points="645.46 782.62 645.46 659.74 636.61 659.74 636.61 779.17"/><polygon class="cls-1" points="1081.91 573.82 976.58 617.14 970.64 739.71 1081.57 689.64 1081.91 573.82"/><polygon class="cls-2" points="1087.8 573.48 1186.69 613.97 1187.38 733.23 1087.8 692.24 1087.8 573.48"/><polygon class="cls-3" points="1081.02 690.22 976.57 738.6 1081.02 776.23 1185.46 738.6 1081.02 690.22"/><path class="cls-4" d="M1077.64,684.85a3,3,0,0,1-1.36,1.36l3.77,8.33,111,46.31c1.35-.6,2.8-1,4.22-1.51v-5.42Z"/><path class="cls-4" d="M1086.79,684.84,967.93,734.41v4.79c1.56.66,3.1,1.43,4.69,1.95l110.48-46.08,4.21-9.31A3.32,3.32,0,0,1,1086.79,684.84Z"/><polyline class="cls-4" points="1075.4 696.36 1075.4 573.48 1087.68 573.48 1087.68 692.92"/><polyline class="cls-4" points="968.14 739.37 968.14 616.49 976.98 616.49 976.98 735.93"/><path class="cls-4" d="M1195.18,621.43c-.15-2.23.26-4.56,0-6.78L1082,567.44a26.92,26.92,0,0,1-4.36,1.52l-.53.21,2.74,6.06,115.54,48.18C1195.29,622.75,1195.22,622.09,1195.18,621.43Z"/><path class="cls-5" d="M1083.56,568c-.52-.17-1-.35-1.55-.56L968.05,615v2c0,2.18.19,4.43.1,6.63l114.73-47.84L1086,569A19.06,19.06,0,0,1,1083.56,568Z"/><path class="cls-4" d="M1195.32,730.44l-125.94,46.18,0,0c3.93,1.33,7.88,2.57,11.69,4.23L1195.31,739C1195.29,736.14,1195.25,733.29,1195.32,730.44Z"/><path class="cls-4" d="M968,730.64v8.54l113.32,41.55.08,0c2.17-.73,4.24-1.77,6.45-2.39l.14,0c1.43-.69,2.85-1.4,4.29-2.07Z"/><polyline class="cls-4" points="1186.23 739.51 1186.23 616.63 1195.08 616.63 1195.08 736.07"/><polygon class="cls-1" points="971.65 529.5 866.32 572.81 860.37 695.39 971.3 645.32 971.65 529.5"/><polygon class="cls-2" points="977.54 529.16 1076.43 569.65 1077.12 688.9 977.54 647.91 977.54 529.16"/><polygon class="cls-3" points="970.75 645.89 866.3 694.28 970.75 731.91 1075.2 694.28 970.75 645.89"/><path class="cls-4" d="M967.37,640.52a3,3,0,0,1-1.35,1.37l3.76,8.32,111,46.31c1.35-.59,2.8-1,4.22-1.51V689.6Z"/><path class="cls-4" d="M976.53,640.52,857.67,690.09v4.78c1.56.67,3.1,1.44,4.68,2l110.49-46.07,4.2-9.31A3.6,3.6,0,0,1,976.53,640.52Z"/><polyline class="cls-4" points="965.13 652.04 965.13 529.16 977.42 529.16 977.42 648.6"/><polyline class="cls-4" points="857.87 695.04 857.87 572.17 866.72 572.17 866.72 691.6"/><path class="cls-4" d="M1084.91,577.11c-.14-2.23.27-4.56,0-6.79l-113.2-47.21a27,27,0,0,1-4.36,1.53l-.53.2,2.74,6.06,115.54,48.19C1085,578.43,1085,577.77,1084.91,577.11Z"/><path class="cls-5" d="M973.3,523.66c-.53-.16-1-.34-1.55-.55l-114,47.53v2c0,2.18.19,4.42.1,6.63l114.73-47.84,3.07-6.82A19.55,19.55,0,0,1,973.3,523.66Z"/><path class="cls-4" d="M1085.05,686.12,959.12,732.3h0c3.92,1.34,7.88,2.58,11.69,4.23L1085,694.67C1085,691.81,1085,689,1085.05,686.12Z"/><path class="cls-4" d="M857.71,686.31v8.54L971,736.4l.08,0c2.17-.73,4.24-1.76,6.45-2.38l.14,0c1.43-.7,2.85-1.4,4.29-2.08Z"/><polyline class="cls-4" points="1075.97 695.19 1075.97 572.31 1084.82 572.31 1084.82 691.75"/><text class="cls-15" transform="translate(198.1 1189.92) scale(0.97 1)"><tspan class="cls-16">RUBIKATE.CO</tspan><tspan x="1448.74" y="0">M</tspan></text><text class="cls-17" transform="translate(206.72 1180.54)"><tspan class="cls-18">RUBIKATE.CO</tspan><tspan x="1403.98" y="0">M</tspan></text><rect class="cls-19" x="958.5" y="1.21" width="9" height="1925" transform="translate(-0.71 1926.71) rotate(-90)"/><polygon class="cls-20" points="499.29 243.63 561.07 226.57 605.98 279.03 539.38 295.02 499.29 243.63"/><polygon class="cls-21" points="496.55 245.51 466.54 297.62 507.36 350.88 537.5 298.32 496.55 245.51"/><polygon class="cls-22" points="539.82 295.08 602.95 280.58 569.49 333.33 510.06 352.61 539.82 295.08"/><path class="cls-4" d="M539.47,291.53a1.8,1.8,0,0,0,1.08.14l1.2,5-33.42,58.88c-.8.2-1.6.51-2.39.79l-1.87-2.41Z"/><path class="cls-4" d="M535.4,294.68l70-18.94,1.65,2.13c-.47.83-.89,1.71-1.41,2.48l-65,17.61-5.08-2.69A2,2,0,0,0,535.4,294.68Z"/><polyline class="cls-4" points="544.44 295.88 502.07 241.23 496.61 245.47 537.79 298.58"/><polyline class="cls-4" points="606.97 278.01 564.6 223.37 560.66 226.42 601.85 279.54"/><path class="cls-4" d="M465.34,303.86c-.71-1-1.69-1.94-2.34-3l34.06-60a14.6,14.6,0,0,0,2.47-.82l.3-.09.87,3.63L465.94,304.8C465.75,304.48,465.55,304.17,465.34,303.86Z"/><path class="cls-5" d="M496.54,241.6c.18-.25.35-.51.5-.77l67.07-18.17.69.9c.75,1,1.44,2,2.24,3l-67.51,18.29-3.72-2A9.83,9.83,0,0,0,496.54,241.6Z"/><path class="cls-4" d="M502.87,352.38l71.92-22.89v0c-1.28,1.95-2.61,3.86-3.74,5.91l-65.22,20.76C504.84,354.9,503.88,353.63,502.87,352.38Z"/><path class="cls-4" d="M604,274.08l2.94,3.79-36.06,57.55,0,0c-1.22.42-2.5.68-3.69,1.16l-.08,0-2.62.55Z"/><polyline class="cls-4" points="510.03 353.28 467.66 298.64 463.73 301.69 504.91 354.8"/><polygon class="cls-23" points="708.86 153.36 780.95 195.42 772.9 285 697.43 237.46 708.86 153.36"/><polygon class="cls-24" points="704.62 152.52 628.76 171.93 616.23 258.43 692.64 238.72 704.62 152.52"/><polygon class="cls-25" points="697.77 237.94 768.71 283.59 689.1 300.37 617.08 262.52 697.77 237.94"/><path class="cls-4" d="M700.76,234.38a2.35,2.35,0,0,0,.85,1.13L698,241.17l-85.27,22.41c-.93-.57-1.93-1-2.92-1.52l.55-3.93Z"/><path class="cls-4" d="M694.12,233.45l81.28,48-.48,3.48c-1.21.32-2.4.72-3.6.94l-75.55-44.59-2.12-7.18A2.36,2.36,0,0,0,694.12,233.45Z"/><polyline class="cls-4" points="701.23 242.96 713.63 153.77 704.71 152.53 692.66 239.23"/><polyline class="cls-4" points="774.75 285 787.14 195.81 780.72 194.91 768.67 281.61"/><path class="cls-4" d="M621.84,176.49c.33-1.6.27-3.34.69-4.92l86.94-22.85a19.88,19.88,0,0,0,3,1.55l.37.2-2.6,4.12-88.73,23.32C621.63,177.44,621.75,177,621.84,176.49Z"/><path class="cls-5" d="M708.25,149c.4-.07.79-.15,1.18-.25l77.93,46-.21,1.46c-.22,1.59-.58,3.2-.74,4.81L708,154.67l-1.54-5.26A12.86,12.86,0,0,0,708.25,149Z"/><path class="cls-4" d="M610.75,255.61l86.75,46.22h0c-3,.57-6,1.07-8.91,1.89l-78.68-41.92C610.19,259.74,610.51,257.68,610.75,255.61Z"/><path class="cls-4" d="M775.75,278.68l-.86,6.2-86.45,18.73-.05,0c-1.51-.75-2.9-1.71-4.44-2.38l-.1,0c-1-.65-1.93-1.3-2.91-1.94Z"/><polyline class="cls-4" points="616.42 263.1 628.82 173.91 622.4 173.02 610.35 259.71"/><polygon class="cls-26" points="1518.7 320.05 1543.79 365.06 1511.36 410.13 1486.19 361.15 1518.7 320.05"/><polygon class="cls-27" points="1516.71 318.27 1470.29 304.74 1436.45 346.77 1483.25 360.31 1516.71 318.27"/><polygon class="cls-28" points="1486.22 361.51 1509.57 408.06 1461.99 391.96 1435.62 349.21 1486.22 361.51"/><path class="cls-4" d="M1488.93,360.56a1.43,1.43,0,0,0,.1.86l-3.68,1.89L1433,348.42c-.31-.59-.7-1.15-1.07-1.72l1.53-1.92Z"/><path class="cls-4" d="M1485.69,358l28.12,51-1.35,1.7c-.74-.21-1.5-.37-2.21-.63l-26.13-47.44,1.13-4.48A1.57,1.57,0,0,0,1485.69,358Z"/><polyline class="cls-4" points="1486.48 365.27 1521.1 321.76 1516.75 318.3 1483.1 360.59"/><polyline class="cls-4" points="1512.34 410.71 1546.96 367.21 1543.83 364.71 1510.18 407"/><path class="cls-4" d="M1465.19,305c.68-.75,1.19-1.68,1.91-2.4l53.38,15.18a12.05,12.05,0,0,0,1.11,1.77l.13.22-2.68,1.37-54.48-15.49C1464.78,305.43,1465,305.22,1465.19,305Z"/><path class="cls-5" d="M1519.76,317.52c.23.09.47.17.7.24l27,48.93-.57.71c-.61.77-1.31,1.52-1.9,2.32l-27.14-49.26.83-3.28A8.52,8.52,0,0,0,1519.76,317.52Z"/><path class="cls-4" d="M1434.43,343.55,1466,395.37h0c-1.77-.63-3.52-1.31-5.33-1.79l-28.64-47C1432.83,345.57,1433.65,344.57,1434.43,343.55Z"/><path class="cls-4" d="M1514.86,407.66l-2.41,3-51.82-17.22,0,0c-.56-.87-1-1.82-1.61-2.66l0,0c-.32-.65-.62-1.3-.94-1.94Z"/><polyline class="cls-4" points="1435.09 349.32 1469.71 305.81 1466.57 303.32 1432.92 345.61"/><polygon class="cls-29" points="1411.01 90.84 1461.64 130.13 1446.47 197.5 1393.82 153.71 1411.01 90.84"/><polygon class="cls-30" points="1407.86 89.77 1348.16 96.9 1329.89 161.47 1390.05 154.18 1407.86 89.77"/><polygon class="cls-31" points="1394.03 154.1 1443.42 196.01 1381.13 200.75 1330.13 164.68 1394.03 154.1"/><path class="cls-4" d="M1396.67,151.7a1.69,1.69,0,0,0,.53.94l-3.29,4-67.17,8.46c-.65-.53-1.36-1-2.07-1.45l.82-2.94Z"/><path class="cls-4" d="M1391.7,150.32l57,44.72-.71,2.59c-1,.13-1.9.31-2.84.36l-53-41.57-.88-5.68A1.64,1.64,0,0,0,1391.7,150.32Z"/><polyline class="cls-4" points="1396.16 158.28 1414.59 91.64 1407.92 89.79 1390.01 154.57"/><polyline class="cls-4" points="1447.88 197.69 1466.31 131.05 1461.51 129.72 1443.6 194.5"/><path class="cls-4" d="M1342.43,99.67c.42-1.19.55-2.51,1-3.68l68.48-8.62a14.89,14.89,0,0,0,2.14,1.48l.25.19-2.39,2.88-69.89,8.8C1342.18,100.37,1342.31,100,1342.43,99.67Z"/><path class="cls-5" d="M1411,87.43c.31,0,.61,0,.92-.07l54.68,42.87-.31,1.09c-.32,1.19-.76,2.38-1,3.59l-55-43.16-.65-4.16A11.91,11.91,0,0,0,1411,87.43Z"/><path class="cls-4" d="M1326,158.77l61.37,43.94h0c-2.33.14-4.66.22-7,.54l-55.66-39.84C1325.17,161.87,1325.61,160.33,1326,158.77Z"/><path class="cls-4" d="M1449.28,193l-1.28,4.63-67.69,5.54,0,0c-1.07-.72-2-1.59-3.15-2.26l-.07,0c-.67-.59-1.33-1.18-2-1.76Z"/><polyline class="cls-4" points="1329.57 165.06 1348 98.41 1343.2 97.08 1325.29 161.86"/><polygon class="cls-32" points="1577.32 44.08 1621.06 48.97 1636.3 93.88 1589.76 87.07 1577.32 44.08"/><polygon class="cls-33" points="1575.09 44.58 1542.66 70.14 1555.08 114.52 1587.72 88.7 1575.09 44.58"/><polygon class="cls-34" points="1590.03 87.23 1633.98 94.1 1599.17 119.19 1556.37 116.31 1590.03 87.23"/><path class="cls-4" d="M1590.71,84.87a1.15,1.15,0,0,0,.65.37l-.51,3.49-36.34,29c-.56-.08-1.15-.09-1.73-.12l-.57-2Z"/><path class="cls-4" d="M1587.31,85.85l49.43,5.77.51,1.78c-.51.41-1,.86-1.53,1.22l-46-5.37-2.55-3A1.3,1.3,0,0,0,1587.31,85.85Z"/><polyline class="cls-4" points="1592.77 88.91 1579.7 43.26 1575.13 44.56 1587.84 88.94"/><polyline class="cls-4" points="1637.19 93.49 1624.13 47.83 1620.84 48.77 1633.54 93.15"/><path class="cls-4" d="M1540.3,73.81c-.19-.84-.59-1.66-.73-2.52l37-29.58a10.75,10.75,0,0,0,1.78.1l.22,0-.38,2.55-37.8,30.19C1540.4,74.31,1540.35,74.06,1540.3,73.81Z"/><path class="cls-5" d="M1576.08,42.08a4.49,4.49,0,0,0,.52-.37L1624,47.25l.22.75c.23.81.4,1.67.67,2.48l-47.72-5.58-1.86-2.2A9.22,9.22,0,0,0,1576.08,42.08Z"/><path class="cls-4" d="M1551.84,114.33l51.7,3.77h0c-1.32.92-2.65,1.8-3.89,2.82l-46.89-3.42C1552.45,116.44,1552.16,115.38,1551.84,114.33Z"/><path class="cls-4" d="M1636.33,90.22l.91,3.18-37.69,27.49h0c-.89,0-1.77-.2-2.65-.2h-.06l-1.81-.32Z"/><polyline class="cls-4" points="1556.18 116.73 1543.11 71.08 1539.82 72.02 1552.52 116.39"/><polygon class="cls-35" points="1342.03 249.55 1389.23 334.22 1328.22 419 1280.88 326.87 1342.03 249.55"/><polygon class="cls-36" points="1338.29 246.2 1250.97 220.76 1187.31 299.81 1275.35 325.29 1338.29 246.2"/><polygon class="cls-37" points="1280.94 327.54 1324.86 415.12 1235.35 384.83 1185.74 304.41 1280.94 327.54"/><path class="cls-4" d="M1286,325.76a2.6,2.6,0,0,0,.17,1.62l-6.91,3.55-98.5-28c-.59-1.11-1.31-2.17-2-3.24l2.87-3.61Z"/><path class="cls-4" d="M1279.94,320.9l52.89,96-2.53,3.19c-1.4-.39-2.83-.69-4.16-1.19L1277,329.67l2.13-8.43A2.85,2.85,0,0,0,1279.94,320.9Z"/><polyline class="cls-4" points="1281.42 334.61 1346.55 252.78 1338.37 246.26 1275.07 325.81"/><polyline class="cls-4" points="1330.07 420.1 1395.19 338.27 1389.3 333.58 1326 413.12"/><path class="cls-4" d="M1241.37,221.23c1.27-1.41,2.24-3.18,3.59-4.52l100.42,28.56a22.22,22.22,0,0,0,2.09,3.32c.08.14.16.28.25.42l-5,2.58-102.49-29.14C1240.59,222.05,1241,221.65,1241.37,221.23Z"/><path class="cls-5" d="M1344,244.79q.65.26,1.32.45l50.71,92.05-1.07,1.34c-1.16,1.45-2.47,2.85-3.58,4.36l-51.05-92.66,1.56-6.17A16.56,16.56,0,0,0,1344,244.79Z"/><path class="cls-4" d="M1183.5,293.76l59.39,97.49h0c-3.32-1.19-6.61-2.46-10-3.38L1179,299.45C1180.5,297.56,1182,295.69,1183.5,293.76Z"/><path class="cls-4" d="M1334.8,414.37l-4.52,5.69-97.49-32.38a.25.25,0,0,0,0-.07c-1.06-1.63-1.89-3.42-3-5l-.08-.1c-.58-1.22-1.16-2.44-1.76-3.65Z"/><polyline class="cls-4" points="1184.74 304.61 1249.86 222.77 1243.97 218.08 1180.67 297.63"/><polygon class="cls-38" points="549.92 74.91 574.14 118.36 542.83 161.88 518.53 114.59 549.92 74.91"/><polygon class="cls-39" points="548 73.19 503.18 60.13 470.5 100.7 515.69 113.78 548 73.19"/><polygon class="cls-40" points="518.56 114.94 541.1 159.88 495.16 144.34 469.7 103.06 518.56 114.94"/><path class="cls-4" d="M521.18,114a1.26,1.26,0,0,0,.09.83l-3.55,1.83L467.16,102.3c-.3-.57-.67-1.12-1-1.67l1.47-1.85Z"/><path class="cls-4" d="M518.05,111.53l27.14,49.27-1.3,1.64c-.71-.2-1.45-.36-2.13-.61L516.53,116l1.09-4.33A1.43,1.43,0,0,0,518.05,111.53Z"/><polyline class="cls-4" points="518.81 118.56 552.23 76.56 548.03 73.22 515.54 114.04"/><polyline class="cls-4" points="543.78 162.44 577.2 120.44 574.18 118.03 541.69 158.86"/><path class="cls-4" d="M498.25,60.37c.65-.73,1.15-1.63,1.84-2.32l51.54,14.66a11.7,11.7,0,0,0,1.08,1.7l.12.22L550.25,76l-52.6-15Z"/><path class="cls-5" d="M550.94,72.46a5.44,5.44,0,0,0,.68.23l26,47.25-.54.69c-.6.74-1.27,1.46-1.84,2.23L549.06,75.3l.8-3.16A9.61,9.61,0,0,0,550.94,72.46Z"/><path class="cls-4" d="M468.55,97.59l30.48,50h0c-1.71-.61-3.39-1.26-5.15-1.73l-27.64-45.38C467,99.55,467.79,98.58,468.55,97.59Z"/><path class="cls-4" d="M546.21,159.5l-2.33,2.92-50-16.62,0,0c-.55-.84-1-1.76-1.56-2.57l0,0c-.3-.63-.59-1.26-.9-1.88Z"/><polyline class="cls-4" points="469.19 103.16 502.61 61.16 499.58 58.75 467.1 99.58"/><polygon class="cls-41" points="592.47 2.61 633.17 8.39 651.58 47.93 608.12 40.4 592.47 2.61"/><polygon class="cls-42" points="590.47 2.97 563.14 24.04 578.91 63.03 606.4 41.74 590.47 2.97"/><polygon class="cls-43" points="608.38 40.54 649.47 48.04 619.91 68.62 580.27 64.63 608.38 40.54"/><path class="cls-4" d="M608.77,38.52a1.47,1.47,0,0,0,.64.34l-.13,3L578.7,65.81c-.52-.09-1.06-.12-1.6-.16l-.72-1.77Z"/><path class="cls-4" d="M605.74,39.24l46,6.75.64,1.56c-.43.34-.84.71-1.29,1l-42.78-6.27-2.65-2.71A.76.76,0,0,0,605.74,39.24Z"/><polyline class="cls-4" points="611.06 42.1 594.58 1.98 590.51 2.96 606.53 41.95"/><polyline class="cls-4" points="652.36 47.62 635.88 7.5 632.95 8.21 648.97 47.2"/><path class="cls-4" d="M561.33,27.15c-.25-.74-.7-1.47-.91-2.22L591.59.53a10.54,10.54,0,0,0,1.65.15l.2,0-.09,2.19L561.53,27.81C561.47,27.59,561.41,27.37,561.33,27.15Z"/><path class="cls-5" d="M591.14.84l.43-.31L635.7,7l.27.66c.29.71.53,1.45.86,2.17L592.4,3.32l-1.93-2A5.56,5.56,0,0,0,591.14.84Z"/><path class="cls-4" d="M575.91,62.75l47.91,5.07h0c-1.12.75-2.26,1.47-3.3,2.31l-43.45-4.6C576.68,64.61,576.31,63.67,575.91,62.75Z"/><path class="cls-4" d="M651.25,44.76l1.14,2.78-32,22.57h0c-.82-.07-1.65-.24-2.46-.27h-.05l-1.7-.34Z"/><polyline class="cls-4" points="580.13 64.99 563.65 24.87 560.72 25.57 576.74 64.57"/><polygon class="cls-44" points="661.86 978.05 639.65 987.18 638.4 1013.03 661.79 1002.47 661.86 978.05"/><polygon class="cls-44" points="663.1 977.98 683.95 986.52 684.1 1011.66 663.1 1003.02 663.1 977.98"/><polygon class="cls-44" points="661.67 1002.59 639.65 1012.79 661.67 1020.73 683.69 1012.79 661.67 1002.59"/><path class="cls-44" d="M661,1001.46a.68.68,0,0,1-.29.29l.79,1.75,23.42,9.77a8.53,8.53,0,0,1,.89-.32v-1.14Z"/><path class="cls-44" d="M662.89,1001.46l-25.06,10.45v1c.33.14.65.3,1,.41l23.3-9.71.89-2A.45.45,0,0,1,662.89,1001.46Z"/><polyline class="cls-44" points="660.48 1003.89 660.48 977.98 663.08 977.98 663.08 1003.16"/><polyline class="cls-44" points="637.87 1012.96 637.87 987.05 639.74 987.05 639.74 1012.23"/><path class="cls-44" d="M685.74,988.09c0-.47,0-1,0-1.43l-23.87-9.95a8.42,8.42,0,0,1-1,.36l.58,1.28,24.36,10.16C685.76,988.37,685.75,988.23,685.74,988.09Z"/><path class="cls-44" d="M662.21,976.82l-.33-.11-24,10c0,.6,0,1.22,0,1.82l24.19-10.09.65-1.44A3.07,3.07,0,0,1,662.21,976.82Z"/><path class="cls-44" d="M685.77,1011.07l-26.55,9.74c.83.29,1.66.54,2.47.9l24.08-8.83C685.76,1012.28,685.75,1011.67,685.77,1011.07Z"/><path class="cls-44" d="M637.84,1011.12v1.8l23.89,8.76a21.2,21.2,0,0,0,2.31-1Z"/><polyline class="cls-44" points="683.85 1012.99 683.85 987.08 685.72 987.08 685.72 1012.26"/><polygon class="cls-7" points="668.94 978.29 646.73 987.42 645.48 1013.26 668.87 1002.71 668.94 978.29"/><polygon class="cls-8" points="670.18 978.22 691.03 986.75 691.17 1011.9 670.18 1003.26 670.18 978.22"/><polygon class="cls-8" points="668.75 1002.83 646.73 1013.03 668.75 1020.97 690.77 1013.03 668.75 1002.83"/><path class="cls-4" d="M668,1001.7a.68.68,0,0,1-.29.29l.79,1.75,23.42,9.77a8.53,8.53,0,0,1,.89-.32v-1.14Z"/><path class="cls-4" d="M670,1001.7l-25.06,10.45v1c.33.14.65.3,1,.41l23.3-9.72.89-2A.52.52,0,0,1,670,1001.7Z"/><polyline class="cls-4" points="667.56 1004.13 667.56 978.22 670.15 978.22 670.15 1003.4"/><polyline class="cls-4" points="644.95 1013.19 644.95 987.29 646.82 987.29 646.82 1012.47"/><path class="cls-4" d="M692.82,988.33c0-.47,0-1,0-1.43l-23.87-10a5.33,5.33,0,0,1-.92.33l-.11,0,.58,1.28,24.36,10.16C692.84,988.61,692.83,988.47,692.82,988.33Z"/><path class="cls-5" d="M669.29,977.06l-.33-.12-24,10v.43c0,.46,0,.93,0,1.4l24.19-10.09.65-1.44A3.07,3.07,0,0,1,669.29,977.06Z"/><path class="cls-4" d="M692.85,1011.31l-26.55,9.74h0c.83.28,1.66.54,2.47.89l24.08-8.83C692.84,1012.51,692.83,1011.91,692.85,1011.31Z"/><path class="cls-4" d="M644.92,1011.35v1.8l23.89,8.76h0c.46-.16.9-.38,1.36-.51h0l.91-.44Z"/><polyline class="cls-4" points="690.93 1013.22 690.93 987.32 692.8 987.32 692.8 1012.5"/></g></g></svg>