<svg xmlns="http://www.w3.org/2000/svg" viewBox="0 0 2269.61 703"><defs><style>.cls-1{fill:#bbbcbb;}.cls-1,.cls-17,.cls-19,.cls-2,.cls-6{stroke:#999898;}.cls-1,.cls-10,.cls-11,.cls-12,.cls-13,.cls-14,.cls-17,.cls-19,.cls-2,.cls-3,.cls-4,.cls-5,.cls-6,.cls-7,.cls-8,.cls-9{stroke-miterlimit:10;}.cls-2{fill:#cfd3cf;}.cls-3{fill:#919191;stroke:#3f3f3f;}.cls-4,.cls-5{fill:#fff;}.cls-4{stroke:#fff;}.cls-5{stroke:#fcfcfc;}.cls-6{fill:none;}.cls-7{fill:#2adbc6;}.cls-10,.cls-11,.cls-12,.cls-13,.cls-14,.cls-7,.cls-8,.cls-9{stroke:#000;}.cls-8{fill:#00b79c;}.cls-9{fill:#bf9f00;}.cls-10{fill:#e0bf00;}.cls-11{fill:#9b8100;}.cls-12{fill:#8e3191;}.cls-13{fill:#8f3691;}.cls-14{fill:#930793;}.cls-15,.cls-20{opacity:0.57;}.cls-15,.cls-17{font-size:204px;font-family:Akashi;}.cls-15,.cls-21{fill:#82817f;}.cls-16{letter-spacing:0.06em;}.cls-17,.cls-19{fill:#efb600;}.cls-18{letter-spacing:0.04em;}</style></defs><title>Recurso 14</title><g id="Capa_2" data-name="Capa 2"><g id="Capa_1-2" data-name="Capa 1"><polygon class="cls-1" points="290.6 456.61 224.74 483.69 221.03 560.34 290.39 529.03 290.6 456.61"/><polygon class="cls-2" points="294.29 456.4 356.12 481.72 356.55 556.28 294.29 530.65 294.29 456.4"/><polygon class="cls-3" points="290.04 529.39 224.74 559.64 290.04 583.17 355.35 559.64 290.04 529.39"/><path class="cls-4" d="M287.93,526a1.84,1.84,0,0,1-.85.85l2.36,5.21,69.43,29c.85-.38,1.75-.65,2.64-.95v-3.38Z"/><path class="cls-4" d="M293.66,526l-74.32,31v3c1,.42,1.94.9,2.93,1.22l69.08-28.81,2.63-5.81A1.94,1.94,0,0,1,293.66,526Z"/><polyline class="cls-4" points="286.53 533.23 286.53 456.4 294.21 456.4 294.21 531.08"/><polyline class="cls-4" points="219.46 560.12 219.46 483.29 225 483.29 225 557.97"/><path class="cls-4" d="M361.42,486.38c-.09-1.39.17-2.85,0-4.24l-70.78-29.52a16.1,16.1,0,0,1-2.73.95l-.33.13,1.72,3.79,72.24,30.13C361.49,487.21,361.45,486.79,361.42,486.38Z"/><path class="cls-5" d="M291.63,453c-.32-.1-.65-.21-1-.34l-71.26,29.71v1.26c0,1.37.12,2.77.06,4.15l71.74-29.92,1.92-4.26A12,12,0,0,1,291.63,453Z"/><path class="cls-4" d="M361.51,554.54l-78.74,28.88h0c2.45.83,4.92,1.61,7.31,2.64l71.4-26.19C361.49,558.1,361.47,556.32,361.51,554.54Z"/><path class="cls-4" d="M219.36,554.66V560l70.85,26,.05,0c1.36-.45,2.66-1.1,4-1.49l.09,0c.89-.43,1.78-.87,2.68-1.29Z"/><line class="cls-6" x1="290.2" y1="452.34" x2="290.2" y2="529.18"/><line class="cls-6" x1="290.6" y1="529.6" x2="217.61" y2="560.34"/><line class="cls-6" x1="290.17" y1="529.6" x2="363.17" y2="560.34"/><polyline class="cls-4" points="355.83 560.21 355.83 483.38 361.37 483.38 361.37 558.06"/><polygon class="cls-1" points="359.61 430.1 293.75 457.18 290.03 533.83 359.39 502.52 359.61 430.1"/><polygon class="cls-2" points="363.29 429.89 425.12 455.21 425.55 529.77 363.29 504.14 363.29 429.89"/><polygon class="cls-3" points="359.05 502.88 293.74 533.13 359.05 556.66 424.35 533.13 359.05 502.88"/><path class="cls-4" d="M356.94,499.52a1.94,1.94,0,0,1-.85.85l2.35,5.21,69.43,29c.85-.38,1.75-.65,2.64-.95v-3.38Z"/><path class="cls-4" d="M362.66,499.52l-74.32,31v3c1,.42,1.94.9,2.93,1.22l69.08-28.81L363,500.1A2.19,2.19,0,0,1,362.66,499.52Z"/><polyline class="cls-4" points="355.53 506.72 355.53 429.89 363.22 429.89 363.22 504.57"/><polyline class="cls-4" points="288.47 533.61 288.47 456.78 294 456.78 294 531.46"/><path class="cls-4" d="M430.43,459.87c-.09-1.39.16-2.85,0-4.24l-70.79-29.52a16,16,0,0,1-2.72.95l-.33.13L358.3,431l72.25,30.13C430.5,460.7,430.45,460.28,430.43,459.87Z"/><path class="cls-5" d="M360.64,426.45c-.33-.1-.65-.21-1-.34l-71.25,29.71v1.26c0,1.37.11,2.77.06,4.15l71.73-29.92,1.93-4.26A12,12,0,0,1,360.64,426.45Z"/><path class="cls-4" d="M430.52,528l-78.75,28.88h0c2.46.83,4.93,1.61,7.31,2.64l71.41-26.19C430.5,531.59,430.48,529.81,430.52,528Z"/><path class="cls-4" d="M288.36,528.15v5.34l70.86,26,0,0c1.36-.45,2.65-1.1,4-1.49l.09,0c.89-.43,1.78-.87,2.68-1.29Z"/><polyline class="cls-4" points="424.84 533.7 424.84 456.87 430.37 456.87 430.37 531.55"/><polygon class="cls-2" points="221.17 430.1 287.03 457.18 290.75 533.83 221.38 502.52 221.17 430.1"/><polygon class="cls-1" points="217.49 429.89 155.66 455.21 155.22 529.77 217.49 504.14 217.49 429.89"/><polygon class="cls-3" points="221.73 502.88 287.04 533.13 221.73 556.66 156.42 533.13 221.73 502.88"/><path class="cls-4" d="M223.84,499.52a1.89,1.89,0,0,0,.85.85l-2.35,5.21-69.44,29c-.84-.38-1.75-.65-2.64-.95v-3.38Z"/><path class="cls-4" d="M218.12,499.52l74.32,31v3c-1,.42-1.94.9-2.93,1.22l-69.09-28.81-2.63-5.81A2.23,2.23,0,0,0,218.12,499.52Z"/><polyline class="cls-4" points="225.24 506.72 225.24 429.89 217.56 429.89 217.56 504.57"/><polyline class="cls-4" points="292.31 533.61 292.31 456.78 286.78 456.78 286.78 531.46"/><path class="cls-4" d="M150.35,459.87c.09-1.39-.17-2.85,0-4.24l70.78-29.52a16.41,16.41,0,0,0,2.73.95l.33.13L222.48,431l-72.25,30.13C150.28,460.7,150.32,460.28,150.35,459.87Z"/><path class="cls-5" d="M220.14,426.45c.33-.1.65-.21,1-.34l71.25,29.71v1.26c0,1.37-.12,2.77-.06,4.15l-71.74-29.92-1.92-4.26A12,12,0,0,0,220.14,426.45Z"/><path class="cls-4" d="M150.26,528,229,556.91h0c-2.46.83-4.93,1.61-7.31,2.64l-71.41-26.19C150.28,531.59,150.3,529.81,150.26,528Z"/><path class="cls-4" d="M292.41,528.15v5.34l-70.85,26-.05,0c-1.36-.45-2.66-1.1-4-1.49l-.09,0c-.89-.43-1.78-.87-2.68-1.29Z"/><line class="cls-6" x1="221.57" y1="425.83" x2="221.57" y2="502.67"/><line class="cls-6" x1="221.17" y1="503.09" x2="294.16" y2="533.83"/><line class="cls-6" x1="221.6" y1="503.09" x2="148.61" y2="533.83"/><polyline class="cls-4" points="155.94 533.7 155.94 456.87 150.41 456.87 150.41 531.55"/><polygon class="cls-1" points="290.66 402.39 224.8 429.47 221.09 506.11 290.45 474.81 290.66 402.39"/><polygon class="cls-2" points="294.35 402.17 356.18 427.49 356.61 502.06 294.35 476.43 294.35 402.17"/><polygon class="cls-3" points="290.1 475.17 224.79 505.42 290.1 528.95 355.41 505.42 290.1 475.17"/><path class="cls-4" d="M288,471.81a1.84,1.84,0,0,1-.85.85l2.36,5.21,69.43,28.95c.84-.37,1.75-.65,2.64-.94v-3.39Z"/><path class="cls-4" d="M293.72,471.81l-74.33,31v3c1,.42,1.94.9,2.93,1.22l69.09-28.81,2.63-5.82A1.89,1.89,0,0,1,293.72,471.81Z"/><polyline class="cls-4" points="286.59 479.01 286.59 402.18 294.27 402.18 294.27 476.86"/><polyline class="cls-4" points="219.52 505.9 219.52 429.07 225.06 429.07 225.06 503.75"/><path class="cls-4" d="M361.48,432.16c-.09-1.4.17-2.86,0-4.25L290.7,398.39a17.43,17.43,0,0,1-2.73,1l-.33.13,1.72,3.78,72.24,30.13Q361.53,432.78,361.48,432.16Z"/><path class="cls-5" d="M291.69,398.74c-.32-.11-.65-.22-1-.35l-71.26,29.72v1.26c0,1.36.12,2.76.06,4.14l71.74-29.91,1.92-4.26A12,12,0,0,1,291.69,398.74Z"/><path class="cls-4" d="M361.57,500.32l-78.74,28.87h0c2.45.84,4.92,1.61,7.31,2.65l71.4-26.19C361.55,503.88,361.53,502.1,361.57,500.32Z"/><path class="cls-4" d="M219.42,500.44v5.34l70.85,26,.05,0c1.36-.46,2.66-1.11,4-1.49l.09,0c.89-.43,1.78-.88,2.68-1.3Z"/><polyline class="cls-4" points="355.89 505.99 355.89 429.16 361.43 429.16 361.43 503.83"/><polygon class="cls-2" points="148.24 253.07 214.1 280.16 217.81 356.8 148.45 325.49 148.24 253.07"/><polygon class="cls-1" points="144.56 252.86 82.72 278.18 82.29 352.74 144.56 327.11 144.56 252.86"/><polygon class="cls-3" points="148.8 325.85 214.11 356.1 148.8 379.63 83.49 356.1 148.8 325.85"/><path class="cls-4" d="M150.91,322.49a1.86,1.86,0,0,0,.85.86l-2.36,5.2L80,357.51c-.84-.37-1.75-.65-2.64-.95v-3.38Z"/><path class="cls-4" d="M145.18,322.49l74.33,31v3c-1,.41-1.94.89-2.93,1.22l-69.09-28.81-2.63-5.82A1.94,1.94,0,0,0,145.18,322.49Z"/><polyline class="cls-4" points="152.31 329.69 152.31 252.86 144.63 252.86 144.63 327.54"/><polyline class="cls-4" points="219.38 356.58 219.38 279.75 213.85 279.75 213.85 354.43"/><path class="cls-4" d="M77.42,282.84c.09-1.39-.17-2.85,0-4.24l70.78-29.52a17.43,17.43,0,0,0,2.73,1l.33.12L149.55,254,77.3,284.08C77.35,283.67,77.39,283.26,77.42,282.84Z"/><path class="cls-5" d="M147.21,249.42c.32-.1.65-.21,1-.34l71.26,29.71v1.26c0,1.37-.12,2.77-.06,4.15l-71.74-29.92L145.71,250A10.66,10.66,0,0,0,147.21,249.42Z"/><path class="cls-4" d="M77.33,351l78.74,28.88h0c-2.45.83-4.92,1.61-7.3,2.64L77.34,356.35C77.35,354.56,77.37,352.78,77.33,351Z"/><path class="cls-4" d="M219.48,351.12v5.34l-70.85,26,0,0c-1.36-.45-2.66-1.1-4-1.49l-.09,0c-.89-.43-1.78-.87-2.68-1.29Z"/><polyline class="cls-4" points="83.01 356.67 83.01 279.84 77.48 279.84 77.48 354.52"/><polygon class="cls-1" points="355.91 226.12 290.05 253.21 286.33 329.85 355.7 298.54 355.91 226.12"/><polygon class="cls-2" points="359.59 225.91 421.43 251.23 421.86 325.79 359.59 300.16 359.59 225.91"/><polygon class="cls-3" points="355.35 298.9 290.04 329.15 355.35 352.68 420.66 329.15 355.35 298.9"/><path class="cls-4" d="M353.24,295.54a2,2,0,0,1-.85.86l2.35,5.2,69.44,29c.84-.38,1.75-.65,2.64-.95v-3.38Z"/><path class="cls-4" d="M359,295.54l-74.32,31v3c1,.41,1.94.89,2.93,1.21l69.09-28.81,2.62-5.81A2.52,2.52,0,0,1,359,295.54Z"/><polyline class="cls-4" points="351.84 302.74 351.84 225.91 359.52 225.91 359.52 300.59"/><polyline class="cls-4" points="284.77 329.63 284.77 252.8 290.3 252.8 290.3 327.48"/><path class="cls-4" d="M426.73,255.89c-.09-1.39.17-2.85,0-4.24L356,222.13a16.41,16.41,0,0,1-2.73,1l-.33.13L354.6,227l72.25,30.13C426.8,256.72,426.76,256.3,426.73,255.89Z"/><path class="cls-5" d="M356.94,222.47c-.33-.1-.65-.21-1-.34l-71.25,29.71v1.26c0,1.37.12,2.77.06,4.15l71.74-29.92,1.92-4.26A12,12,0,0,1,356.94,222.47Z"/><path class="cls-4" d="M426.82,324.05l-78.74,28.88h0c2.46.83,4.93,1.61,7.31,2.64l71.41-26.18C426.8,327.61,426.78,325.83,426.82,324.05Z"/><path class="cls-4" d="M284.67,324.17v5.34l70.85,26,.05,0c1.36-.45,2.66-1.1,4-1.49l.08,0c.9-.43,1.79-.87,2.69-1.29Z"/><polyline class="cls-4" points="421.14 329.72 421.14 252.89 426.67 252.89 426.67 327.57"/><polygon class="cls-7" points="286.96 148.89 221.1 175.98 217.39 252.62 286.75 221.31 286.96 148.89"/><polygon class="cls-8" points="290.65 148.68 352.48 174 352.91 248.56 290.65 222.94 290.65 148.68"/><polygon class="cls-8" points="286.41 221.67 221.1 251.92 286.41 275.45 351.71 251.92 286.41 221.67"/><path class="cls-4" d="M284.29,218.31a1.89,1.89,0,0,1-.84.86l2.35,5.2,69.43,29c.85-.37,1.75-.65,2.64-.94V249Z"/><path class="cls-4" d="M290,218.31l-74.32,31v3c1,.41,1.94.89,2.93,1.22l69.08-28.81,2.63-5.82A2.19,2.19,0,0,1,290,218.31Z"/><polyline class="cls-4" points="282.89 225.51 282.89 148.68 290.58 148.68 290.58 223.36"/><polyline class="cls-4" points="215.83 252.4 215.83 175.57 221.36 175.57 221.36 250.25"/><path class="cls-4" d="M357.79,178.66c-.09-1.39.16-2.85,0-4.24L287,144.9a17,17,0,0,1-2.72,1L284,146l1.71,3.79L357.9,179.9C357.86,179.49,357.81,179.08,357.79,178.66Z"/><path class="cls-5" d="M288,145.24c-.33-.1-.65-.21-1-.34l-71.26,29.71v1.26c0,1.37.12,2.77.07,4.15l71.73-29.92,1.93-4.25A11,11,0,0,1,288,145.24Z"/><path class="cls-4" d="M357.88,246.82,279.13,275.7h0c2.45.83,4.93,1.61,7.31,2.64l71.41-26.18C357.86,250.38,357.83,248.6,357.88,246.82Z"/><path class="cls-4" d="M215.72,246.94v5.34l70.86,26,.05,0c1.36-.46,2.65-1.11,4-1.49l.09,0c.89-.43,1.78-.87,2.68-1.29Z"/><polyline class="cls-4" points="352.19 252.49 352.19 175.66 357.73 175.66 357.73 250.34"/><polygon class="cls-1" points="424.85 329.85 358.99 356.94 355.27 433.58 424.63 402.27 424.85 329.85"/><polygon class="cls-2" points="428.53 329.64 490.36 354.96 490.79 429.52 428.53 403.89 428.53 329.64"/><polygon class="cls-3" points="424.29 402.63 358.98 432.88 424.29 456.41 489.59 432.88 424.29 402.63"/><path class="cls-4" d="M422.17,399.27a1.94,1.94,0,0,1-.84.86l2.35,5.2,69.43,29c.85-.38,1.75-.65,2.64-1V430Z"/><path class="cls-4" d="M427.9,399.27l-74.32,31v3c1,.42,1.94.9,2.93,1.22l69.08-28.81,2.63-5.81A2.19,2.19,0,0,1,427.9,399.27Z"/><polyline class="cls-4" points="420.77 406.47 420.77 329.64 428.46 329.64 428.46 404.32"/><polyline class="cls-4" points="353.71 433.36 353.71 356.53 359.24 356.53 359.24 431.21"/><path class="cls-4" d="M495.67,359.62c-.09-1.39.16-2.85,0-4.24l-70.79-29.52a16,16,0,0,1-2.72.95l-.33.13,1.71,3.79,72.24,30.13C495.74,360.45,495.69,360,495.67,359.62Z"/><path class="cls-5" d="M425.88,326.2c-.33-.1-.65-.21-1-.34l-71.25,29.71v1.26c0,1.37.11,2.77.06,4.15l71.73-29.92,1.93-4.26A12,12,0,0,1,425.88,326.2Z"/><path class="cls-4" d="M495.76,427.78,417,456.66h0c2.45.83,4.93,1.61,7.31,2.64l71.41-26.19C495.74,431.34,495.71,429.56,495.76,427.78Z"/><path class="cls-4" d="M353.6,427.9v5.34l70.86,26,.05,0c1.36-.45,2.65-1.1,4-1.49l.09,0c.89-.43,1.78-.87,2.68-1.29Z"/><polyline class="cls-4" points="490.08 433.45 490.08 356.62 495.61 356.62 495.61 431.3"/><polygon class="cls-9" points="71.53 337.96 137.4 365.05 141.11 441.69 71.75 410.38 71.53 337.96"/><polygon class="cls-10" points="67.85 337.75 6.02 363.07 5.59 437.63 67.85 412 67.85 337.75"/><polygon class="cls-11" points="72.09 410.74 137.4 440.99 72.09 464.52 6.79 440.99 72.09 410.74"/><path class="cls-4" d="M74.21,407.38a1.94,1.94,0,0,0,.84.86l-2.35,5.2-69.43,29c-.85-.38-1.75-.65-2.64-.95v-3.38Z"/><path class="cls-4" d="M68.48,407.38l74.32,31v3c-1,.41-1.94.89-2.93,1.21L70.79,413.77,68.16,408A2.19,2.19,0,0,0,68.48,407.38Z"/><polyline class="cls-4" points="75.61 414.58 75.61 337.75 67.92 337.75 67.92 412.43"/><polyline class="cls-4" points="142.67 441.47 142.67 364.64 137.14 364.64 137.14 439.32"/><path class="cls-4" d="M.71,367.73c.09-1.39-.16-2.85,0-4.24L71.5,334a16,16,0,0,0,2.72.95l.33.13-1.71,3.79L.6,369C.64,368.56.69,368.14.71,367.73Z"/><path class="cls-5" d="M70.5,334.31c.33-.1.65-.21,1-.34l71.25,29.71v1.26c0,1.37-.11,2.77-.06,4.15L70.93,339.17,69,334.91A12,12,0,0,0,70.5,334.31Z"/><path class="cls-4" d="M.62,435.89l78.75,28.88h0c-2.45.83-4.93,1.61-7.31,2.64L.63,441.24C.64,439.45.66,437.67.62,435.89Z"/><path class="cls-4" d="M142.78,436v5.34l-70.86,26,0,0c-1.36-.45-2.65-1.1-4-1.49l-.09,0c-.89-.43-1.78-.87-2.68-1.29Z"/><polyline class="cls-4" points="6.3 441.56 6.3 364.73 0.77 364.73 0.77 439.41"/><polygon class="cls-2" points="217.18 302.9 283.04 329.98 286.75 406.63 217.39 375.32 217.18 302.9"/><polygon class="cls-1" points="213.49 302.69 151.66 328 151.23 402.57 213.49 376.94 213.49 302.69"/><polygon class="cls-3" points="217.73 375.68 283.04 405.93 217.73 429.46 152.43 405.93 217.73 375.68"/><path class="cls-4" d="M219.85,372.32a1.87,1.87,0,0,0,.84.85l-2.35,5.21-69.43,29c-.85-.38-1.75-.65-2.64-.95V403Z"/><path class="cls-4" d="M214.12,372.32l74.32,31v3c-1,.42-1.94.9-2.93,1.22l-69.08-28.81-2.63-5.82A2,2,0,0,0,214.12,372.32Z"/><polyline class="cls-4" points="221.25 379.52 221.25 302.69 213.56 302.69 213.56 377.37"/><polyline class="cls-4" points="288.31 406.41 288.31 329.58 282.78 329.58 282.78 404.26"/><path class="cls-4" d="M146.35,332.67c.09-1.4-.16-2.85,0-4.24l70.79-29.52a16,16,0,0,0,2.72.95l.33.13-1.71,3.79-72.24,30.13C146.28,333.5,146.33,333.08,146.35,332.67Z"/><path class="cls-5" d="M216.14,299.25c.33-.1.65-.21,1-.34l71.25,29.71v1.26c0,1.36-.11,2.77-.06,4.15l-71.73-29.92-1.93-4.26A10.91,10.91,0,0,0,216.14,299.25Z"/><path class="cls-4" d="M146.26,400.83,225,429.71h0c-2.45.84-4.93,1.61-7.31,2.65l-71.41-26.19C146.28,404.39,146.31,402.61,146.26,400.83Z"/><path class="cls-4" d="M288.42,401v5.34l-70.86,26-.05,0c-1.36-.45-2.65-1.1-4-1.49l-.09,0c-.89-.43-1.78-.87-2.68-1.29Z"/><polyline class="cls-4" points="151.94 406.5 151.94 329.67 146.41 329.67 146.41 404.35"/><polygon class="cls-1" points="286.67 275.19 220.81 302.27 217.09 378.91 286.45 347.61 286.67 275.19"/><polygon class="cls-2" points="290.35 274.97 352.18 300.29 352.61 374.86 290.35 349.23 290.35 274.97"/><polygon class="cls-3" points="286.11 347.96 220.8 378.22 286.11 401.75 351.42 378.22 286.11 347.96"/><path class="cls-4" d="M284,344.61a1.94,1.94,0,0,1-.85.85l2.35,5.21,69.43,28.95c.85-.37,1.75-.65,2.64-.94v-3.39Z"/><path class="cls-4" d="M289.72,344.61l-74.32,31v3c1,.41,1.94.9,2.93,1.22L287.41,351l2.63-5.82A2.14,2.14,0,0,1,289.72,344.61Z"/><polyline class="cls-4" points="282.59 351.81 282.59 274.98 290.28 274.98 290.28 349.65"/><polyline class="cls-4" points="215.53 378.7 215.53 301.87 221.06 301.87 221.06 376.55"/><path class="cls-4" d="M357.49,305c-.09-1.4.16-2.86,0-4.25L286.7,271.19a17,17,0,0,1-2.72,1l-.33.13,1.71,3.78,72.25,30.13Q357.54,305.57,357.49,305Z"/><path class="cls-5" d="M287.7,271.54c-.33-.11-.65-.22-1-.35l-71.25,29.72v1.26c0,1.36.11,2.76.06,4.14l71.73-29.91,1.93-4.26A12,12,0,0,1,287.7,271.54Z"/><path class="cls-4" d="M357.58,373.12,278.83,402h0c2.46.84,4.93,1.61,7.31,2.64l71.41-26.18C357.56,376.68,357.54,374.9,357.58,373.12Z"/><path class="cls-4" d="M215.43,373.24v5.34l70.85,26,.05,0c1.36-.46,2.65-1.11,4-1.49l.09,0c.89-.44,1.78-.88,2.68-1.3Z"/><polyline class="cls-4" points="351.9 378.79 351.9 301.95 357.43 301.95 357.43 376.63"/><polygon class="cls-12" points="479.06 421.62 413.19 448.71 409.48 525.35 478.84 494.04 479.06 421.62"/><polygon class="cls-13" points="482.74 421.41 544.57 446.73 545 521.29 482.74 495.67 482.74 421.41"/><polygon class="cls-14" points="478.5 494.4 413.19 524.65 478.5 548.18 543.8 524.65 478.5 494.4"/><path class="cls-4" d="M476.38,491a1.89,1.89,0,0,1-.84.86l2.35,5.2,69.43,29c.85-.37,1.75-.65,2.64-.94v-3.39Z"/><path class="cls-4" d="M482.11,491l-74.32,31v3c1,.41,1.94.89,2.93,1.22l69.08-28.81,2.63-5.82A2,2,0,0,1,482.11,491Z"/><polyline class="cls-4" points="474.98 498.25 474.98 421.41 482.67 421.41 482.67 496.09"/><polyline class="cls-4" points="407.92 525.13 407.92 448.3 413.45 448.3 413.45 522.98"/><path class="cls-4" d="M549.88,451.39c-.09-1.39.16-2.85,0-4.24l-70.79-29.52a17,17,0,0,1-2.72,1l-.33.12,1.71,3.79L550,452.63C550,452.22,549.9,451.81,549.88,451.39Z"/><path class="cls-5" d="M480.09,418c-.33-.1-.65-.21-1-.34l-71.25,29.72v1.25c0,1.37.11,2.77.06,4.15l71.73-29.92,1.93-4.25A11,11,0,0,1,480.09,418Z"/><path class="cls-4" d="M550,519.56l-78.75,28.87h0c2.45.83,4.93,1.61,7.31,2.64L550,524.9C550,523.11,549.92,521.33,550,519.56Z"/><path class="cls-4" d="M407.81,519.68V525l70.86,26,.05,0c1.36-.46,2.65-1.11,4-1.49l.09,0c.89-.43,1.78-.87,2.68-1.29Z"/><polyline class="cls-4" points="544.28 525.22 544.28 448.39 549.82 448.39 549.82 523.07"/><polygon class="cls-2" points="148.37 403.27 214.23 430.35 217.94 506.99 148.58 475.69 148.37 403.27"/><polygon class="cls-1" points="144.68 403.06 82.85 428.37 82.42 502.94 144.68 477.31 144.68 403.06"/><polygon class="cls-3" points="148.93 476.05 214.23 506.3 148.93 529.83 83.62 506.3 148.93 476.05"/><path class="cls-4" d="M151,472.69a1.87,1.87,0,0,0,.84.85l-2.35,5.21-69.43,29c-.85-.38-1.75-.65-2.64-.95v-3.38Z"/><path class="cls-4" d="M145.31,472.69l74.32,31v3c-1,.42-1.94.9-2.93,1.22l-69.08-28.81L145,473.26A1.78,1.78,0,0,0,145.31,472.69Z"/><polyline class="cls-4" points="152.44 479.89 152.44 403.06 144.76 403.06 144.76 477.74"/><polyline class="cls-4" points="219.51 506.78 219.51 429.95 213.97 429.95 213.97 504.63"/><path class="cls-4" d="M77.54,433c.09-1.4-.16-2.85,0-4.24l70.79-29.52a16.1,16.1,0,0,0,2.73,1,2.52,2.52,0,0,0,.33.13l-1.72,3.79L77.43,434.28C77.48,433.86,77.52,433.45,77.54,433Z"/><path class="cls-5" d="M147.33,399.62a10.13,10.13,0,0,0,1-.35L219.56,429v1.26c0,1.36-.12,2.77-.06,4.15l-71.74-29.92-1.92-4.26A11.31,11.31,0,0,0,147.33,399.62Z"/><path class="cls-4" d="M77.46,501.2l78.74,28.87h0c-2.45.84-4.92,1.61-7.31,2.65L77.46,506.54C77.48,504.76,77.5,503,77.46,501.2Z"/><path class="cls-4" d="M219.61,501.32v5.34l-70.86,26-.05,0c-1.35-.46-2.65-1.1-4-1.49l-.09,0-2.68-1.3Z"/><polyline class="cls-4" points="83.14 506.87 83.14 430.04 77.6 430.04 77.6 504.72"/><polygon class="cls-1" points="356.04 376.32 290.18 403.4 286.46 480.04 355.82 448.74 356.04 376.32"/><polygon class="cls-2" points="359.72 376.11 421.55 401.42 421.99 475.99 359.72 450.36 359.72 376.11"/><polygon class="cls-3" points="355.48 449.1 290.17 479.35 355.48 502.88 420.79 479.35 355.48 449.1"/><path class="cls-4" d="M353.37,445.74a1.94,1.94,0,0,1-.85.85l2.35,5.21,69.43,28.95c.85-.37,1.75-.65,2.65-.94v-3.39Z"/><path class="cls-4" d="M359.09,445.74l-74.32,31v3c1,.42,1.94.9,2.93,1.22l69.08-28.81,2.63-5.82A2.45,2.45,0,0,1,359.09,445.74Z"/><polyline class="cls-4" points="351.96 452.94 351.96 376.11 359.65 376.11 359.65 450.79"/><polyline class="cls-4" points="284.9 479.83 284.9 403 290.43 403 290.43 477.68"/><path class="cls-4" d="M426.86,406.09c-.09-1.4.16-2.85,0-4.24l-70.79-29.53a16.05,16.05,0,0,1-2.72,1l-.33.13,1.71,3.79L427,407.33C426.93,406.91,426.89,406.5,426.86,406.09Z"/><path class="cls-5" d="M357.07,372.67c-.33-.1-.65-.22-1-.35L284.85,402v1.26c0,1.36.11,2.77.06,4.15l71.73-29.92,1.93-4.26A12,12,0,0,1,357.07,372.67Z"/><path class="cls-4" d="M427,474.25l-78.74,28.87h0c2.46.84,4.93,1.61,7.31,2.65l71.41-26.19C426.93,477.81,426.91,476,427,474.25Z"/><path class="cls-4" d="M284.8,474.37v5.34l70.85,26,.05,0c1.36-.46,2.65-1.1,4-1.49l.09,0,2.68-1.3Z"/><polyline class="cls-4" points="421.27 479.92 421.27 403.09 426.8 403.09 426.8 477.77"/><polygon class="cls-1" points="287.09 348.61 221.23 375.69 217.52 452.33 286.88 421.02 287.09 348.61"/><polygon class="cls-2" points="290.78 348.39 352.61 373.71 353.04 448.27 290.78 422.65 290.78 348.39"/><polygon class="cls-3" points="286.53 421.38 221.23 451.63 286.53 475.17 351.84 451.63 286.53 421.38"/><path class="cls-4" d="M284.42,418a1.89,1.89,0,0,1-.84.86l2.35,5.2,69.43,29c.85-.37,1.75-.65,2.64-.94v-3.39Z"/><path class="cls-4" d="M290.15,418l-74.32,31v3c1,.41,1.94.89,2.93,1.22l69.08-28.81,2.63-5.82A1.83,1.83,0,0,1,290.15,418Z"/><polyline class="cls-4" points="283.02 425.23 283.02 348.39 290.7 348.39 290.7 423.07"/><polyline class="cls-4" points="215.95 452.12 215.95 375.28 221.49 375.28 221.49 449.96"/><path class="cls-4" d="M357.92,378.37c-.09-1.39.16-2.85,0-4.24l-70.79-29.52a17.33,17.33,0,0,1-2.72,1l-.34.12,1.72,3.79L358,379.61C358,379.2,357.94,378.79,357.92,378.37Z"/><path class="cls-5" d="M288.13,345c-.33-.11-.66-.22-1-.35L215.9,374.33v1.26c0,1.36.12,2.76.06,4.14l71.74-29.91,1.92-4.26A12.88,12.88,0,0,1,288.13,345Z"/><path class="cls-4" d="M358,446.54l-78.74,28.87h0c2.45.83,4.92,1.61,7.31,2.64L358,451.88C358,450.1,358,448.31,358,446.54Z"/><path class="cls-4" d="M215.85,446.66V452l70.86,26,.05,0c1.35-.46,2.65-1.11,4-1.49l.09,0c.89-.44,1.78-.88,2.68-1.3Z"/><polyline class="cls-4" points="352.32 452.2 352.32 375.37 357.86 375.37 357.86 450.05"/><text class="cls-15" transform="translate(667.24 429.71) scale(0.97 1)"><tspan class="cls-16">RUBIKATE.CO</tspan><tspan x="1448.74" y="0">M</tspan></text><text class="cls-17" transform="translate(675.87 420.33)"><tspan class="cls-18">RUBIKATE.CO</tspan><tspan x="1403.98" y="0">M</tspan></text><rect class="cls-19" x="604.61" y="0.5" width="9" height="702"/><g class="cls-20"><polygon class="cls-21" points="1132.97 217.53 1110.85 226.63 1109.6 252.38 1132.9 241.86 1132.97 217.53"/><polygon class="cls-21" points="1134.21 217.46 1154.99 225.96 1155.13 251.01 1134.21 242.4 1134.21 217.46"/><polygon class="cls-21" points="1132.79 241.98 1110.84 252.14 1132.79 260.05 1154.73 252.14 1132.79 241.98"/><path class="cls-21" d="M1132.08,240.85a.74.74,0,0,1-.29.29l.79,1.75,23.33,9.73a8.53,8.53,0,0,1,.89-.32v-1.14Z"/><path class="cls-21" d="M1134,240.85l-25,10.41v1c.33.14.65.3,1,.41l23.21-9.68.89-2A.59.59,0,0,1,1134,240.85Z"/><polyline class="cls-21" points="1131.61 243.27 1131.61 217.46 1134.19 217.46 1134.19 242.55"/><polyline class="cls-21" points="1109.07 252.31 1109.07 226.49 1110.93 226.49 1110.93 251.58"/><path class="cls-21" d="M1156.77,227.53c0-.47,0-1,0-1.43L1133,216.18a8.49,8.49,0,0,1-1,.37l.57,1.27,24.28,10.12C1156.79,227.81,1156.78,227.67,1156.77,227.53Z"/><path class="cls-21" d="M1133.32,216.3a2.19,2.19,0,0,1-.33-.12l-23.94,10c0,.6,0,1.21,0,1.81l24.11-10,.64-1.43A3.07,3.07,0,0,1,1133.32,216.3Z"/><path class="cls-21" d="M1156.8,250.43l-26.46,9.7c.83.29,1.66.54,2.46.89l24-8.79C1156.79,251.63,1156.78,251,1156.8,250.43Z"/><path class="cls-21" d="M1109,250.47v1.79l23.8,8.73a19.33,19.33,0,0,0,2.31-.95Z"/><polyline class="cls-21" points="1154.89 252.34 1154.89 226.52 1156.75 226.52 1156.75 251.61"/></g><polygon class="cls-7" points="1139.14 216.61 1116.93 225.74 1115.68 251.58 1139.07 241.03 1139.14 216.61"/><polygon class="cls-8" points="1140.38 216.53 1161.23 225.07 1161.38 250.22 1140.38 241.57 1140.38 216.53"/><polygon class="cls-8" points="1138.95 241.15 1116.93 251.35 1138.95 259.28 1160.97 251.35 1138.95 241.15"/><path class="cls-4" d="M1138.24,240a.61.61,0,0,1-.29.28l.8,1.76,23.41,9.76c.28-.12.59-.22.89-.32v-1.14Z"/><path class="cls-4" d="M1140.17,240l-25.06,10.45v1c.33.14.65.31,1,.42l23.29-9.72.89-2A.72.72,0,0,1,1140.17,240Z"/><polyline class="cls-4" points="1137.77 242.44 1137.77 216.54 1140.36 216.54 1140.36 241.72"/><polyline class="cls-4" points="1115.15 251.51 1115.15 225.6 1117.02 225.6 1117.02 250.78"/><path class="cls-4" d="M1163,226.65c0-.48.06-1,0-1.44l-23.87-10a4.57,4.57,0,0,1-.92.32l-.11,0,.58,1.27,24.36,10.16C1163,226.92,1163,226.78,1163,226.65Z"/><path class="cls-5" d="M1139.49,215.38l-.33-.12-24,10v.43c0,.45,0,.93,0,1.39L1139.34,217l.65-1.44Z"/><path class="cls-4" d="M1163.05,249.63l-26.55,9.74h0c.83.28,1.67.54,2.47.89l24.08-8.83Q1163,250.53,1163.05,249.63Z"/><path class="cls-4" d="M1115.12,249.67v1.8l23.89,8.76h0c.45-.15.89-.37,1.36-.5h0l.9-.43Z"/><polyline class="cls-4" points="1161.13 251.54 1161.13 225.63 1163 225.63 1163 250.81"/></g></g></svg>