<svg xmlns="http://www.w3.org/2000/svg" viewBox="0 0 1926 1230.87"><defs><style>.cls-1{fill:#bbbcbb;}.cls-1,.cls-17,.cls-19,.cls-2,.cls-22,.cls-23,.cls-24,.cls-25,.cls-26,.cls-27,.cls-28,.cls-29,.cls-30,.cls-31,.cls-32,.cls-33,.cls-34,.cls-35,.cls-36,.cls-37,.cls-38,.cls-39,.cls-40,.cls-41,.cls-42,.cls-43,.cls-44,.cls-45,.cls-6{stroke:#999898;}.cls-1,.cls-10,.cls-11,.cls-12,.cls-13,.cls-14,.cls-17,.cls-19,.cls-2,.cls-22,.cls-23,.cls-24,.cls-25,.cls-26,.cls-27,.cls-28,.cls-29,.cls-3,.cls-30,.cls-31,.cls-32,.cls-33,.cls-34,.cls-35,.cls-36,.cls-37,.cls-38,.cls-39,.cls-4,.cls-40,.cls-41,.cls-42,.cls-43,.cls-44,.cls-45,.cls-5,.cls-6,.cls-7,.cls-8,.cls-9{stroke-miterlimit:10;}.cls-2{fill:#cfd3cf;}.cls-3{fill:#919191;stroke:#3f3f3f;}.cls-4,.cls-5{fill:#fff;}.cls-4{stroke:#fff;}.cls-5{stroke:#fcfcfc;}.cls-6{fill:none;}.cls-7{fill:#2adbc6;}.cls-10,.cls-11,.cls-12,.cls-13,.cls-14,.cls-7,.cls-8,.cls-9{stroke:#000;}.cls-8{fill:#00b79c;}.cls-9{fill:#bf9f00;}.cls-10{fill:#e0bf00;}.cls-11{fill:#9b8100;}.cls-12{fill:#8e3191;}.cls-13{fill:#8f3691;}.cls-14{fill:#930793;}.cls-15,.cls-20{opacity:0.57;}.cls-15,.cls-17{font-size:204px;font-family:Akashi;}.cls-15,.cls-21{fill:#82817f;}.cls-16{letter-spacing:0.06em;}.cls-17,.cls-19{fill:#efb600;}.cls-18{letter-spacing:0.04em;}.cls-22{fill:#f7082b;}.cls-23{fill:#c6092d;}.cls-24{fill:#a50726;}.cls-25{fill:#c17110;}.cls-26{fill:#b76711;}.cls-27{fill:#965a0b;}.cls-28{fill:#0619fc;}.cls-29{fill:#061fce;}.cls-30{fill:#051799;}.cls-31{fill:#fc06c2;}.cls-32{fill:#c408aa;}.cls-33{fill:#b50694;}.cls-34{fill:#95f908;}.cls-35{fill:#79c108;}.cls-36{fill:#5c9306;}.cls-37{fill:#b7f708;}.cls-38{fill:#a7d309;}.cls-39{fill:#85a807;}.cls-40{fill:#fc8606;}.cls-41{fill:#c46208;}.cls-42{fill:#9b5005;}.cls-43{fill:#06ddf9;}.cls-44{fill:#06b7c4;}.cls-45{fill:#059faa;}</style></defs><title>Recurso 13</title><g id="Capa_2" data-name="Capa 2"><g id="Capa_1-2" data-name="Capa 1"><polygon class="cls-1" points="977.26 703.34 871.93 746.65 865.98 869.23 976.92 819.16 977.26 703.34"/><polygon class="cls-2" points="983.15 703 1082.04 743.49 1082.73 862.74 983.15 821.76 983.15 703"/><polygon class="cls-3" points="976.36 819.74 871.92 868.12 976.36 905.75 1080.81 868.12 976.36 819.74"/><path class="cls-4" d="M973,814.36a3.05,3.05,0,0,1-1.36,1.37l3.76,8.33,111.05,46.31c1.35-.6,2.8-1,4.22-1.51v-5.42Z"/><path class="cls-4" d="M982.14,814.36,863.28,863.93v4.78c1.56.67,3.1,1.44,4.69,2l110.48-46.08,4.21-9.31A3.47,3.47,0,0,1,982.14,814.36Z"/><polyline class="cls-4" points="970.75 825.88 970.75 703 983.03 703 983.03 822.44"/><polyline class="cls-4" points="863.48 868.89 863.48 746.01 872.33 746.01 872.33 865.44"/><path class="cls-4" d="M1090.52,751c-.14-2.23.27-4.56,0-6.78L977.32,697a27,27,0,0,1-4.36,1.53l-.53.2,2.74,6.06,115.54,48.19C1090.63,752.27,1090.57,751.61,1090.52,751Z"/><path class="cls-5" d="M978.91,697.5c-.53-.16-1-.34-1.55-.55l-114,47.53v2c0,2.18.19,4.43.1,6.63l114.73-47.84,3.07-6.81A19.61,19.61,0,0,1,978.91,697.5Z"/><path class="cls-4" d="M1090.67,860,964.73,906.14l0,0c3.92,1.33,7.88,2.57,11.69,4.22l114.2-41.87C1090.63,865.66,1090.6,862.81,1090.67,860Z"/><path class="cls-4" d="M863.32,860.15v8.54l113.32,41.56.08,0c2.17-.73,4.24-1.76,6.45-2.38l.14,0c1.43-.69,2.85-1.4,4.29-2.07Z"/><line class="cls-6" x1="976.62" y1="696.51" x2="976.62" y2="819.39"/><line class="cls-6" x1="977.26" y1="820.08" x2="860.52" y2="869.23"/><line class="cls-6" x1="976.57" y1="820.08" x2="1093.31" y2="869.23"/><polyline class="cls-4" points="1081.58 869.03 1081.58 746.15 1090.43 746.15 1090.43 865.59"/><polygon class="cls-1" points="1087.62 660.94 982.29 704.26 976.34 826.83 1087.28 776.76 1087.62 660.94"/><polygon class="cls-2" points="1093.51 660.6 1192.4 701.09 1193.09 820.35 1093.51 779.36 1093.51 660.6"/><polygon class="cls-3" points="1086.72 777.34 982.27 825.72 1086.72 863.35 1191.17 825.72 1086.72 777.34"/><path class="cls-4" d="M1083.35,772a3.08,3.08,0,0,1-1.36,1.36l3.76,8.33,111,46.31c1.35-.6,2.8-1,4.22-1.51V821Z"/><path class="cls-4" d="M1092.5,772,973.64,821.54v4.78c1.56.66,3.1,1.43,4.69,1.95l110.48-46.08,4.21-9.3A3.27,3.27,0,0,1,1092.5,772Z"/><polyline class="cls-4" points="1081.1 783.48 1081.1 660.6 1093.39 660.6 1093.39 780.04"/><polyline class="cls-4" points="973.84 826.49 973.84 703.61 982.69 703.61 982.69 823.05"/><path class="cls-4" d="M1200.88,708.55c-.14-2.23.27-4.56,0-6.78l-113.2-47.21a26.92,26.92,0,0,1-4.36,1.52l-.53.21,2.74,6.06,115.54,48.18C1201,709.87,1200.93,709.21,1200.88,708.55Z"/><path class="cls-5" d="M1089.27,655.11c-.53-.17-1-.35-1.55-.56l-114,47.53v2c0,2.18.19,4.43.1,6.63l114.73-47.84,3.07-6.81A19.55,19.55,0,0,1,1089.27,655.11Z"/><path class="cls-4" d="M1201,817.57l-125.93,46.17,0,0c3.92,1.33,7.88,2.57,11.69,4.23L1201,826.11C1201,823.26,1201,820.41,1201,817.57Z"/><path class="cls-4" d="M973.68,817.76v8.54L1087,867.85l.08,0c2.17-.73,4.24-1.77,6.45-2.39l.14,0c1.43-.69,2.85-1.4,4.29-2.07Z"/><polyline class="cls-4" points="1191.94 826.63 1191.94 703.75 1200.79 703.75 1200.79 823.19"/><polygon class="cls-2" points="866.22 660.94 971.55 704.26 977.49 826.83 866.56 776.76 866.22 660.94"/><polygon class="cls-1" points="860.32 660.6 761.44 701.09 760.74 820.35 860.32 779.36 860.32 660.6"/><polygon class="cls-3" points="867.11 777.34 971.56 825.72 867.11 863.35 762.66 825.72 867.11 777.34"/><path class="cls-4" d="M870.49,772a3,3,0,0,0,1.35,1.36l-3.76,8.33L757,828c-1.36-.6-2.8-1-4.23-1.51V821Z"/><path class="cls-4" d="M861.33,772l118.86,49.58v4.78c-1.56.66-3.1,1.43-4.68,1.95L865,782.19l-4.2-9.3A3.24,3.24,0,0,0,861.33,772Z"/><polyline class="cls-4" points="872.73 783.48 872.73 660.6 860.44 660.6 860.44 780.04"/><polyline class="cls-4" points="979.99 826.49 979.99 703.61 971.14 703.61 971.14 823.05"/><path class="cls-4" d="M753,708.55c.14-2.23-.27-4.56,0-6.78l113.21-47.21a26.49,26.49,0,0,0,4.35,1.52l.53.21-2.74,6.06L752.76,710.53C752.84,709.87,752.91,709.21,753,708.55Z"/><path class="cls-5" d="M864.56,655.11c.53-.17,1.05-.35,1.55-.56l114,47.53v2c0,2.18-.19,4.43-.1,6.63L865.25,662.88l-3.08-6.81A19.55,19.55,0,0,0,864.56,655.11Z"/><path class="cls-4" d="M752.81,817.57l125.93,46.17,0,0c-3.92,1.33-7.88,2.57-11.68,4.23L752.82,826.11C752.84,823.26,752.87,820.41,752.81,817.57Z"/><path class="cls-4" d="M980.15,817.76v8.54L866.84,867.85l-.09,0c-2.17-.73-4.24-1.77-6.45-2.39l-.14,0c-1.43-.69-2.85-1.4-4.29-2.07Z"/><line class="cls-6" x1="866.86" y1="654.12" x2="866.86" y2="777"/><line class="cls-6" x1="866.22" y1="777.68" x2="982.95" y2="826.83"/><line class="cls-6" x1="866.9" y1="777.68" x2="750.16" y2="826.83"/><polyline class="cls-4" points="761.89 826.63 761.89 703.75 753.04 703.75 753.04 823.19"/><polygon class="cls-1" points="977.35 616.62 872.02 659.93 866.08 782.51 977.01 732.44 977.35 616.62"/><polygon class="cls-2" points="983.24 616.28 1082.13 656.77 1082.82 776.02 983.24 735.03 983.24 616.28"/><polygon class="cls-3" points="976.46 733.01 872.01 781.4 976.46 819.03 1080.91 781.4 976.46 733.01"/><path class="cls-4" d="M973.08,727.64a3,3,0,0,1-1.35,1.37l3.76,8.32,111,46.31c1.36-.59,2.8-1,4.23-1.51v-5.41Z"/><path class="cls-4" d="M982.24,727.64,863.38,777.21V782c1.56.67,3.1,1.44,4.68,2l110.49-46.07,4.2-9.31A3.19,3.19,0,0,1,982.24,727.64Z"/><polyline class="cls-4" points="970.84 739.16 970.84 616.28 983.13 616.28 983.13 735.72"/><polyline class="cls-4" points="863.58 782.16 863.58 659.29 872.43 659.29 872.43 778.72"/><path class="cls-4" d="M1090.62,664.23c-.14-2.23.26-4.56,0-6.78L977.41,610.23a26.33,26.33,0,0,1-4.36,1.53l-.52.2,2.73,6.06,115.55,48.19C1090.73,665.55,1090.66,664.89,1090.62,664.23Z"/><path class="cls-5" d="M979,610.78c-.52-.16-1-.34-1.54-.55l-114,47.53v2c0,2.18.19,4.42.1,6.63l114.72-47.84,3.08-6.82A17.66,17.66,0,0,1,979,610.78Z"/><path class="cls-4" d="M1090.76,773.24,964.83,819.42h0c3.93,1.34,7.88,2.58,11.69,4.23l114.21-41.87C1090.73,778.94,1090.7,776.09,1090.76,773.24Z"/><path class="cls-4" d="M863.42,773.43V782l113.31,41.56.08,0c2.18-.73,4.25-1.76,6.46-2.38l.14,0c1.43-.69,2.85-1.4,4.28-2.08Z"/><polyline class="cls-4" points="1081.68 782.31 1081.68 659.43 1090.53 659.43 1090.53 778.87"/><polygon class="cls-2" points="749.58 377.82 854.91 421.13 860.85 543.71 749.92 493.64 749.58 377.82"/><polygon class="cls-1" points="743.68 377.48 644.8 417.97 644.11 537.22 743.68 496.24 743.68 377.48"/><polygon class="cls-3" points="750.47 494.21 854.92 542.6 750.47 580.23 646.02 542.6 750.47 494.21"/><path class="cls-4" d="M753.85,488.84a3,3,0,0,0,1.35,1.37l-3.76,8.32-111,46.31c-1.36-.59-2.8-1-4.23-1.5v-5.42Z"/><path class="cls-4" d="M744.69,488.84l118.86,49.57v4.78c-1.56.67-3.1,1.44-4.68,1.95L748.38,499.07l-4.2-9.31A3.19,3.19,0,0,0,744.69,488.84Z"/><polyline class="cls-4" points="756.09 500.36 756.09 377.48 743.8 377.48 743.8 496.92"/><polyline class="cls-4" points="863.35 543.37 863.35 420.49 854.5 420.49 854.5 539.92"/><path class="cls-4" d="M636.31,425.43c.14-2.23-.26-4.56,0-6.78l113.21-47.22a26.55,26.55,0,0,0,4.35,1.53l.53.2-2.74,6.06L636.12,427.41C636.2,426.75,636.27,426.09,636.31,425.43Z"/><path class="cls-5" d="M747.92,372a15.79,15.79,0,0,0,1.55-.55l114,47.53v2c0,2.18-.19,4.43-.1,6.63L748.61,379.76l-3.08-6.82A17.54,17.54,0,0,0,747.92,372Z"/><path class="cls-4" d="M636.17,534.44,762.1,580.62h0c-3.92,1.34-7.88,2.58-11.68,4.23L636.18,543C636.2,540.14,636.23,537.29,636.17,534.44Z"/><path class="cls-4" d="M863.51,534.63v8.54L750.2,584.73l-.09,0c-2.17-.73-4.24-1.76-6.45-2.38l-.14,0c-1.43-.69-2.85-1.4-4.29-2.07Z"/><polyline class="cls-4" points="645.25 543.51 645.25 420.63 636.4 420.63 636.4 540.07"/><polygon class="cls-1" points="1081.7 334.72 976.37 378.03 970.43 500.6 1081.36 450.54 1081.7 334.72"/><polygon class="cls-2" points="1087.6 334.38 1186.48 374.87 1187.18 494.12 1087.6 453.13 1087.6 334.38"/><polygon class="cls-3" points="1080.81 451.11 976.36 499.5 1080.81 537.13 1185.26 499.5 1080.81 451.11"/><path class="cls-4" d="M1077.43,445.74a3.08,3.08,0,0,1-1.35,1.37l3.76,8.32,111,46.31c1.36-.6,2.8-1,4.23-1.51v-5.41Z"/><path class="cls-4" d="M1086.59,445.74,967.73,495.31v4.78c1.56.66,3.1,1.43,4.68,2L1082.9,456l4.2-9.3A3.32,3.32,0,0,1,1086.59,445.74Z"/><polyline class="cls-4" points="1075.19 457.26 1075.19 334.38 1087.48 334.38 1087.48 453.81"/><polyline class="cls-4" points="967.93 500.26 967.93 377.38 976.78 377.38 976.78 496.82"/><path class="cls-4" d="M1195,382.33c-.14-2.23.27-4.56,0-6.79l-113.21-47.21a26.55,26.55,0,0,1-4.35,1.53l-.53.2,2.74,6.06,115.54,48.19C1195.08,383.65,1195,383,1195,382.33Z"/><path class="cls-5" d="M1083.36,328.88c-.53-.17-1-.34-1.55-.55l-114,47.52v2c0,2.18.19,4.42.1,6.63l114.72-47.85,3.08-6.81A19.55,19.55,0,0,1,1083.36,328.88Z"/><path class="cls-4" d="M1195.11,491.34l-125.93,46.18h0c3.92,1.34,7.88,2.58,11.69,4.23l114.2-41.88C1195.08,497,1195.05,494.18,1195.11,491.34Z"/><path class="cls-4" d="M967.77,491.53v8.54l113.32,41.55.08,0c2.17-.73,4.24-1.77,6.45-2.38l.14,0c1.43-.69,2.85-1.39,4.29-2.07Z"/><polyline class="cls-4" points="1186.03 500.4 1186.03 377.53 1194.88 377.53 1194.88 496.96"/><polygon class="cls-7" points="971.44 211.21 866.11 254.52 860.17 377.09 971.1 327.02 971.44 211.21"/><polygon class="cls-8" points="977.33 210.86 1076.22 251.35 1076.91 370.61 977.33 329.62 977.33 210.86"/><polygon class="cls-8" points="970.55 327.6 866.1 375.98 970.55 413.62 1074.99 375.98 970.55 327.6"/><path class="cls-4" d="M967.17,322.23a3,3,0,0,1-1.35,1.36l3.76,8.33,111,46.31c1.36-.6,2.8-1,4.23-1.51V371.3Z"/><path class="cls-4" d="M976.33,322.23,857.46,371.8v4.78c1.57.66,3.11,1.43,4.69,1.95l110.49-46.08,4.2-9.3A3.32,3.32,0,0,1,976.33,322.23Z"/><polyline class="cls-4" points="964.93 333.75 964.93 210.87 977.22 210.87 977.22 330.3"/><polyline class="cls-4" points="857.67 376.75 857.67 253.87 866.52 253.87 866.52 373.31"/><path class="cls-4" d="M1084.71,258.81c-.15-2.23.26-4.56,0-6.78L971.5,204.82a27.27,27.27,0,0,1-4.36,1.53l-.53.2,2.74,6.06,115.55,48.18C1084.82,260.14,1084.75,259.48,1084.71,258.81Z"/><path class="cls-5" d="M973.09,205.37c-.52-.17-1-.35-1.54-.56l-114,47.53v2c0,2.18.18,4.42.1,6.63l114.72-47.85,3.08-6.81A19.06,19.06,0,0,1,973.09,205.37Z"/><path class="cls-4" d="M1084.85,367.83,958.92,414l0,0c3.93,1.34,7.88,2.57,11.69,4.23l114.21-41.88C1084.82,373.52,1084.78,370.67,1084.85,367.83Z"/><path class="cls-4" d="M857.5,368v8.54l113.32,41.55.08,0c2.17-.73,4.25-1.77,6.45-2.39l.15,0c1.42-.69,2.85-1.4,4.28-2.07Z"/><polyline class="cls-4" points="1075.77 376.89 1075.77 254.02 1084.61 254.02 1084.61 373.45"/><polygon class="cls-1" points="1191.95 500.61 1086.62 543.93 1080.68 666.5 1191.61 616.43 1191.95 500.61"/><polygon class="cls-2" points="1197.85 500.27 1296.73 540.76 1297.43 660.01 1197.85 619.03 1197.85 500.27"/><polygon class="cls-3" points="1191.06 617.01 1086.61 665.39 1191.06 703.02 1295.51 665.39 1191.06 617.01"/><path class="cls-4" d="M1187.68,611.64a3,3,0,0,1-1.35,1.36l3.76,8.33,111,46.31c1.36-.6,2.8-1,4.23-1.51v-5.42Z"/><path class="cls-4" d="M1196.84,611.63,1078,661.21V666c1.56.66,3.1,1.43,4.68,2l110.49-46.08,4.2-9.3A3.24,3.24,0,0,1,1196.84,611.63Z"/><polyline class="cls-4" points="1185.44 623.15 1185.44 500.27 1197.73 500.27 1197.73 619.71"/><polyline class="cls-4" points="1078.18 666.16 1078.18 543.28 1087.03 543.28 1087.03 662.72"/><path class="cls-4" d="M1305.22,548.22c-.14-2.23.27-4.56,0-6.78L1192,494.23a26.49,26.49,0,0,1-4.35,1.52l-.53.21,2.74,6.06,115.54,48.18C1305.33,549.54,1305.26,548.88,1305.22,548.22Z"/><path class="cls-5" d="M1193.61,494.78c-.53-.17-1-.35-1.55-.56l-114,47.53v2c0,2.18.19,4.43.1,6.63l114.72-47.84,3.08-6.81A19.55,19.55,0,0,1,1193.61,494.78Z"/><path class="cls-4" d="M1305.36,657.23l-125.93,46.18,0,0c3.92,1.33,7.88,2.57,11.69,4.23l114.2-41.88C1305.33,662.93,1305.3,660.08,1305.36,657.23Z"/><path class="cls-4" d="M1078,657.43V666l113.32,41.55.08,0c2.17-.73,4.24-1.77,6.45-2.39l.14,0c1.43-.69,2.85-1.4,4.29-2.07Z"/><polyline class="cls-4" points="1296.28 666.3 1296.28 543.42 1305.13 543.42 1305.13 662.86"/><polygon class="cls-9" points="626.9 513.58 732.23 556.9 738.17 679.47 627.24 629.4 626.9 513.58"/><polygon class="cls-10" points="621.01 513.24 522.12 553.73 521.43 672.99 621.01 632 621.01 513.24"/><polygon class="cls-11" points="627.8 629.98 732.24 678.36 627.8 715.99 523.35 678.36 627.8 629.98"/><path class="cls-4" d="M631.17,624.61a3,3,0,0,0,1.36,1.36l-3.76,8.33-111,46.31c-1.35-.6-2.8-1-4.22-1.51v-5.42Z"/><path class="cls-4" d="M622,624.61l118.86,49.57V679c-1.56.66-3.1,1.43-4.69,1.95L625.71,634.83l-4.21-9.3A3.64,3.64,0,0,0,622,624.61Z"/><polyline class="cls-4" points="633.41 636.12 633.41 513.25 621.13 513.25 621.13 632.68"/><polyline class="cls-4" points="740.67 679.13 740.67 556.25 731.83 556.25 731.83 675.69"/><path class="cls-4" d="M513.63,561.19c.15-2.23-.26-4.56,0-6.78L626.84,507.2a28,28,0,0,0,4.36,1.53l.53.2L629,515,513.45,563.17C513.52,562.51,513.59,561.86,513.63,561.19Z"/><path class="cls-5" d="M625.25,507.75c.52-.17,1-.35,1.55-.56l114,47.53v2c0,2.18-.19,4.43-.1,6.63L625.93,515.52l-3.08-6.81A19.06,19.06,0,0,0,625.25,507.75Z"/><path class="cls-4" d="M513.49,670.21l125.94,46.17,0,0c-3.93,1.33-7.88,2.57-11.69,4.23l-114.2-41.88C513.52,675.9,513.56,673.05,513.49,670.21Z"/><path class="cls-4" d="M740.84,670.4v8.54L627.52,720.49l-.08,0c-2.17-.73-4.24-1.77-6.45-2.39l-.14,0c-1.43-.69-2.85-1.4-4.29-2.07Z"/><polyline class="cls-4" points="522.58 679.27 522.58 556.39 513.73 556.39 513.73 675.83"/><polygon class="cls-2" points="859.83 457.51 965.16 500.82 971.1 623.4 860.17 573.33 859.83 457.51"/><polygon class="cls-1" points="853.93 457.17 755.05 497.66 754.36 616.91 853.93 575.92 853.93 457.17"/><polygon class="cls-3" points="860.72 573.9 965.17 622.29 860.72 659.92 756.27 622.29 860.72 573.9"/><path class="cls-4" d="M864.1,568.53a3,3,0,0,0,1.35,1.37l-3.76,8.32-111,46.31c-1.36-.59-2.8-1-4.23-1.51v-5.41Z"/><path class="cls-4" d="M854.94,568.53,973.8,618.1v4.78c-1.56.67-3.1,1.44-4.68,2L858.63,578.76l-4.2-9.31A3.19,3.19,0,0,0,854.94,568.53Z"/><polyline class="cls-4" points="866.34 580.05 866.34 457.17 854.05 457.17 854.05 576.61"/><polyline class="cls-4" points="973.6 623.05 973.6 500.18 964.75 500.18 964.75 619.61"/><path class="cls-4" d="M746.56,505.12c.14-2.23-.26-4.56,0-6.78l113.21-47.22a26.55,26.55,0,0,0,4.35,1.53l.53.2-2.74,6.06L746.37,507.1C746.45,506.44,746.52,505.78,746.56,505.12Z"/><path class="cls-5" d="M858.17,451.67a15.79,15.79,0,0,0,1.55-.55l114,47.53v2c0,2.18-.19,4.42-.1,6.63L858.86,459.45l-3.08-6.82A18.92,18.92,0,0,0,858.17,451.67Z"/><path class="cls-4" d="M746.42,614.13l125.93,46.18h0c-3.92,1.34-7.88,2.58-11.68,4.23L746.43,622.68C746.45,619.83,746.48,617,746.42,614.13Z"/><path class="cls-4" d="M973.76,614.32v8.54L860.45,664.41l-.09,0c-2.17-.73-4.24-1.76-6.45-2.38l-.14,0c-1.43-.69-2.85-1.4-4.29-2.08Z"/><polyline class="cls-4" points="755.5 623.2 755.5 500.32 746.65 500.32 746.65 619.76"/><polygon class="cls-1" points="970.96 413.19 865.63 456.5 859.69 579.07 970.62 529.01 970.96 413.19"/><polygon class="cls-2" points="976.86 412.85 1075.74 453.34 1076.43 572.59 976.86 531.6 976.86 412.85"/><polygon class="cls-3" points="970.07 529.58 865.62 577.97 970.07 615.6 1074.52 577.97 970.07 529.58"/><path class="cls-4" d="M966.69,524.21a3.08,3.08,0,0,1-1.35,1.37l3.76,8.32,111,46.31c1.36-.6,2.8-1,4.23-1.51v-5.41Z"/><path class="cls-4" d="M975.85,524.21,857,573.78v4.78c1.56.66,3.1,1.43,4.68,2l110.49-46.08,4.2-9.3A3.32,3.32,0,0,1,975.85,524.21Z"/><polyline class="cls-4" points="964.45 535.73 964.45 412.85 976.74 412.85 976.74 532.28"/><polyline class="cls-4" points="857.19 578.73 857.19 455.85 866.04 455.85 866.04 575.29"/><path class="cls-4" d="M1084.23,460.8c-.14-2.23.26-4.56,0-6.79L971,406.8a26.33,26.33,0,0,1-4.36,1.53l-.52.2,2.73,6.06,115.55,48.19C1084.34,462.12,1084.27,461.46,1084.23,460.8Z"/><path class="cls-5" d="M972.61,407.35c-.52-.17-1-.35-1.54-.55l-114,47.52v2c0,2.18.19,4.42.1,6.63l114.72-47.85,3.08-6.81A19.06,19.06,0,0,1,972.61,407.35Z"/><path class="cls-4" d="M1084.37,569.81,958.44,616h0c3.93,1.34,7.88,2.58,11.69,4.23l114.21-41.88C1084.34,575.5,1084.31,572.65,1084.37,569.81Z"/><path class="cls-4" d="M857,570v8.54l113.31,41.55.08,0c2.18-.73,4.25-1.77,6.46-2.38l.14,0c1.43-.69,2.85-1.39,4.28-2.07Z"/><polyline class="cls-4" points="1075.29 578.88 1075.29 456 1084.14 456 1084.14 575.43"/><polygon class="cls-12" points="1278.65 647.39 1173.32 690.7 1167.38 813.27 1278.31 763.21 1278.65 647.39"/><polygon class="cls-13" points="1284.54 647.04 1383.43 687.53 1384.12 806.79 1284.54 765.8 1284.54 647.04"/><polygon class="cls-14" points="1277.76 763.78 1173.31 812.16 1277.76 849.79 1382.21 812.16 1277.76 763.78"/><path class="cls-4" d="M1274.38,758.41a3,3,0,0,1-1.35,1.36l3.76,8.33,111,46.31c1.36-.6,2.8-1,4.23-1.51v-5.42Z"/><path class="cls-4" d="M1283.54,758.41,1164.68,808v4.78c1.56.66,3.1,1.43,4.68,2l110.49-46.08,4.2-9.3A3.32,3.32,0,0,1,1283.54,758.41Z"/><polyline class="cls-4" points="1272.14 769.93 1272.14 647.05 1284.43 647.05 1284.43 766.48"/><polyline class="cls-4" points="1164.88 812.93 1164.88 690.05 1173.73 690.05 1173.73 809.49"/><path class="cls-4" d="M1391.92,695c-.14-2.23.26-4.56,0-6.78L1278.71,641a26.33,26.33,0,0,1-4.36,1.53l-.52.2,2.73,6.06L1392.11,697C1392,696.32,1392,695.66,1391.92,695Z"/><path class="cls-5" d="M1280.3,641.55c-.52-.17-1-.35-1.54-.55l-114,47.52v2c0,2.18.19,4.42.1,6.63l114.72-47.85,3.08-6.81A19.06,19.06,0,0,1,1280.3,641.55Z"/><path class="cls-4" d="M1392.06,804l-125.93,46.18h0c3.93,1.34,7.88,2.57,11.69,4.23l114.21-41.88C1392,809.7,1392,806.85,1392.06,804Z"/><path class="cls-4" d="M1164.72,804.2v8.54L1278,854.29l.08,0c2.18-.73,4.25-1.77,6.46-2.38l.14,0c1.43-.69,2.85-1.4,4.28-2.07Z"/><polyline class="cls-4" points="1382.98 813.07 1382.98 690.2 1391.83 690.2 1391.83 809.63"/><polygon class="cls-2" points="749.78 618.03 855.11 661.35 861.05 783.92 750.12 733.85 749.78 618.03"/><polygon class="cls-1" points="743.89 617.69 645 658.18 644.31 777.43 743.89 736.45 743.89 617.69"/><polygon class="cls-3" points="750.67 734.42 855.12 782.81 750.67 820.44 646.23 782.81 750.67 734.42"/><path class="cls-4" d="M754.05,729.06a3,3,0,0,0,1.36,1.36l-3.77,8.33-111,46.31c-1.35-.6-2.8-1-4.22-1.51v-5.42Z"/><path class="cls-4" d="M744.9,729.05l118.86,49.57v4.78c-1.56.67-3.1,1.44-4.69,2L748.59,739.28,744.38,730A3.32,3.32,0,0,0,744.9,729.05Z"/><polyline class="cls-4" points="756.29 740.57 756.29 617.69 744 617.69 744 737.13"/><polyline class="cls-4" points="863.55 783.58 863.55 660.7 854.71 660.7 854.71 780.13"/><path class="cls-4" d="M636.51,665.64c.15-2.23-.26-4.56,0-6.78l113.21-47.22a27,27,0,0,0,4.36,1.53l.53.2-2.74,6.06L636.33,667.62C636.4,667,636.47,666.3,636.51,665.64Z"/><path class="cls-5" d="M748.13,612.19c.52-.16,1-.34,1.55-.55l114,47.53v2c0,2.18-.19,4.43-.1,6.63L748.81,620l-3.08-6.81A19.12,19.12,0,0,0,748.13,612.19Z"/><path class="cls-4" d="M636.37,774.65l125.94,46.18,0,0c-3.93,1.33-7.88,2.57-11.69,4.22L636.39,783.2C636.4,780.35,636.44,777.5,636.37,774.65Z"/><path class="cls-4" d="M863.72,774.85v8.53L750.4,824.94l-.08,0c-2.17-.73-4.24-1.76-6.45-2.38l-.14,0c-1.43-.69-2.85-1.4-4.29-2.07Z"/><polyline class="cls-4" points="645.46 783.72 645.46 660.84 636.61 660.84 636.61 780.28"/><polygon class="cls-1" points="1081.91 574.93 976.58 618.24 970.64 740.82 1081.57 690.75 1081.91 574.93"/><polygon class="cls-2" points="1087.8 574.59 1186.69 615.08 1187.38 734.33 1087.8 693.34 1087.8 574.59"/><polygon class="cls-3" points="1081.02 691.32 976.57 739.71 1081.02 777.34 1185.46 739.71 1081.02 691.32"/><path class="cls-4" d="M1077.64,686a3,3,0,0,1-1.36,1.37l3.77,8.32,111,46.31c1.35-.6,2.8-1,4.22-1.51V735Z"/><path class="cls-4" d="M1086.79,686,967.93,735.52v4.78c1.56.66,3.1,1.43,4.69,2l110.48-46.07,4.21-9.31A3.64,3.64,0,0,1,1086.79,686Z"/><polyline class="cls-4" points="1075.4 697.47 1075.4 574.59 1087.68 574.59 1087.68 694.03"/><polyline class="cls-4" points="968.14 740.47 968.14 617.6 976.98 617.6 976.98 737.03"/><path class="cls-4" d="M1195.18,622.54c-.15-2.23.26-4.56,0-6.79L1082,568.54a27,27,0,0,1-4.36,1.53l-.53.2,2.74,6.06,115.54,48.19C1195.29,623.86,1195.22,623.2,1195.18,622.54Z"/><path class="cls-5" d="M1083.56,569.09c-.52-.17-1-.34-1.55-.55l-114,47.52v2c0,2.18.19,4.42.1,6.63l114.73-47.85,3.08-6.81A19.06,19.06,0,0,1,1083.56,569.09Z"/><path class="cls-4" d="M1195.32,731.55l-125.94,46.18h0c3.93,1.34,7.88,2.58,11.69,4.23l114.21-41.88C1195.29,737.24,1195.25,734.4,1195.32,731.55Z"/><path class="cls-4" d="M968,731.74v8.54l113.32,41.55.08,0c2.17-.73,4.24-1.76,6.45-2.38l.14,0c1.43-.69,2.85-1.39,4.29-2.07Z"/><polyline class="cls-4" points="1186.23 740.62 1186.23 617.74 1195.08 617.74 1195.08 737.17"/><polygon class="cls-1" points="971.65 530.61 866.32 573.92 860.37 696.49 971.3 646.42 971.65 530.61"/><polygon class="cls-2" points="977.54 530.26 1076.43 570.75 1077.12 690.01 977.54 649.02 977.54 530.26"/><polygon class="cls-3" points="970.75 647 866.3 695.38 970.75 733.01 1075.2 695.38 970.75 647"/><path class="cls-4" d="M967.37,641.63A3,3,0,0,1,966,643l3.76,8.33,111,46.31c1.35-.6,2.8-1,4.22-1.51V690.7Z"/><path class="cls-4" d="M976.53,641.63,857.67,691.2V696c1.56.66,3.1,1.43,4.68,1.95l110.49-46.08,4.2-9.3A3.6,3.6,0,0,1,976.53,641.63Z"/><polyline class="cls-4" points="965.13 653.14 965.13 530.26 977.42 530.26 977.42 649.7"/><polyline class="cls-4" points="857.87 696.15 857.87 573.27 866.72 573.27 866.72 692.71"/><path class="cls-4" d="M1084.91,578.21c-.14-2.23.27-4.56,0-6.78l-113.2-47.21a28,28,0,0,1-4.36,1.53l-.53.2,2.74,6.06,115.54,48.18C1085,579.54,1085,578.88,1084.91,578.21Z"/><path class="cls-5" d="M973.3,524.77c-.53-.17-1-.35-1.55-.56l-114,47.53v2c0,2.19.19,4.43.1,6.64l114.73-47.85,3.07-6.81A19.55,19.55,0,0,1,973.3,524.77Z"/><path class="cls-4" d="M1085.05,687.23,959.12,733.4l0,0c3.92,1.33,7.88,2.57,11.69,4.23L1085,695.77C1085,692.92,1085,690.07,1085.05,687.23Z"/><path class="cls-4" d="M857.71,687.42V696L971,737.51l.08,0c2.17-.73,4.24-1.77,6.45-2.39l.14,0c1.43-.69,2.85-1.4,4.29-2.07Z"/><polyline class="cls-4" points="1075.97 696.29 1075.97 573.41 1084.82 573.41 1084.82 692.85"/><text class="cls-15" transform="translate(198.1 1191.03) scale(0.97 1)"><tspan class="cls-16">RUBIKATE.CO</tspan><tspan x="1448.74" y="0">M</tspan></text><text class="cls-17" transform="translate(206.72 1181.64)"><tspan class="cls-18">RUBIKATE.CO</tspan><tspan x="1403.98" y="0">M</tspan></text><rect class="cls-19" x="958.5" y="2.31" width="9" height="1925" transform="translate(-1.81 1927.81) rotate(-90)"/><g class="cls-20"><polygon class="cls-21" points="662.37 979.92 640.16 989.06 638.91 1014.9 662.3 1004.34 662.37 979.92"/><polygon class="cls-21" points="663.61 979.85 684.46 988.39 684.61 1013.53 663.61 1004.89 663.61 979.85"/><polygon class="cls-21" points="662.18 1004.47 640.16 1014.67 662.18 1022.6 684.2 1014.67 662.18 1004.47"/><path class="cls-21" d="M661.47,1003.33a.63.63,0,0,1-.29.29l.79,1.76,23.42,9.76a8.53,8.53,0,0,1,.89-.32v-1.14Z"/><path class="cls-21" d="M663.4,1003.33l-25.06,10.45v1c.33.14.65.3,1,.41l23.3-9.71.89-2A.56.56,0,0,1,663.4,1003.33Z"/><polyline class="cls-21" points="660.99 1005.76 660.99 979.85 663.59 979.85 663.59 1005.03"/><polyline class="cls-21" points="638.38 1014.83 638.38 988.92 640.25 988.92 640.25 1014.1"/><path class="cls-21" d="M686.25,990c0-.47,0-1,0-1.43l-23.87-9.95a8.42,8.42,0,0,1-1,.36l.58,1.28,24.36,10.16C686.27,990.24,686.26,990.1,686.25,990Z"/><path class="cls-21" d="M662.72,978.69l-.33-.11-24,10c0,.6,0,1.22,0,1.82l24.19-10.09.65-1.43A4.4,4.4,0,0,1,662.72,978.69Z"/><path class="cls-21" d="M686.28,1013l-26.55,9.73c.83.29,1.66.55,2.47.9l24.08-8.83C686.27,1014.15,686.26,1013.55,686.28,1013Z"/><path class="cls-21" d="M638.35,1013v1.8l23.89,8.76a23.33,23.33,0,0,0,2.31-.95Z"/><polyline class="cls-21" points="684.36 1014.86 684.36 988.95 686.23 988.95 686.23 1014.13"/></g><polygon class="cls-7" points="669.45 980.16 647.24 989.29 645.99 1015.14 669.38 1004.58 669.45 980.16"/><polygon class="cls-8" points="670.69 980.09 691.54 988.63 691.68 1013.77 670.69 1005.13 670.69 980.09"/><polygon class="cls-8" points="669.26 1004.7 647.24 1014.9 669.26 1022.84 691.28 1014.9 669.26 1004.7"/><path class="cls-4" d="M668.55,1003.57a.68.68,0,0,1-.29.29l.79,1.75,23.42,9.77a8.53,8.53,0,0,1,.89-.32v-1.14Z"/><path class="cls-4" d="M670.48,1003.57,645.42,1014v1c.33.14.65.3,1,.41l23.3-9.71.89-2A.45.45,0,0,1,670.48,1003.57Z"/><polyline class="cls-4" points="668.07 1006 668.07 980.09 670.66 980.09 670.66 1005.27"/><polyline class="cls-4" points="645.46 1015.07 645.46 989.16 647.33 989.16 647.33 1014.34"/><path class="cls-4" d="M693.33,990.2c0-.47,0-1,0-1.43l-23.87-9.95a6.27,6.27,0,0,1-.92.32l-.11,0,.58,1.28,24.36,10.16C693.35,990.48,693.34,990.34,693.33,990.2Z"/><path class="cls-5" d="M669.8,978.93a2.19,2.19,0,0,1-.33-.12l-24,10v.42c0,.46,0,.93,0,1.4l24.19-10.09.65-1.44A3.07,3.07,0,0,1,669.8,978.93Z"/><path class="cls-4" d="M693.36,1013.18l-26.55,9.74h0c.83.29,1.66.55,2.47.89l24.08-8.82C693.35,1014.38,693.34,1013.78,693.36,1013.18Z"/><path class="cls-4" d="M645.43,1013.22V1015l23.89,8.76h0c.46-.15.9-.37,1.36-.5h0l.91-.44Z"/><polyline class="cls-4" points="691.44 1015.1 691.44 989.19 693.31 989.19 693.31 1014.37"/><polygon class="cls-1" points="974.58 702.24 869.25 745.55 863.3 868.12 974.24 818.06 974.58 702.24"/><polygon class="cls-2" points="980.47 701.89 1079.36 742.38 1080.05 861.64 980.47 820.65 980.47 701.89"/><polygon class="cls-3" points="973.68 818.63 869.24 867.01 973.68 904.65 1078.13 867.01 973.68 818.63"/><path class="cls-4" d="M970.31,813.26a3.1,3.1,0,0,1-1.36,1.37l3.76,8.32,111,46.31c1.35-.6,2.8-1,4.22-1.51v-5.41Z"/><path class="cls-4" d="M979.46,813.26,860.6,862.83v4.78c1.56.66,3.1,1.43,4.69,1.95l110.48-46.08,4.21-9.3A3.64,3.64,0,0,1,979.46,813.26Z"/><polyline class="cls-4" points="968.07 824.78 968.07 701.9 980.35 701.9 980.35 821.33"/><polyline class="cls-4" points="860.8 867.78 860.8 744.9 869.65 744.9 869.65 864.34"/><path class="cls-4" d="M1087.84,749.85c-.14-2.24.27-4.57,0-6.79L974.64,695.85a27,27,0,0,1-4.36,1.53l-.53.2,2.74,6.06L1088,751.83C1088,751.17,1087.89,750.51,1087.84,749.85Z"/><path class="cls-5" d="M976.23,696.4c-.53-.17-1-.35-1.55-.55l-114,47.52v2c0,2.18.19,4.42.1,6.63l114.73-47.85,3.07-6.81A19.55,19.55,0,0,1,976.23,696.4Z"/><path class="cls-4" d="M1088,858.86,962.05,905h0c3.92,1.34,7.88,2.58,11.69,4.23L1088,867.4C1088,864.55,1087.92,861.7,1088,858.86Z"/><path class="cls-4" d="M860.64,859.05v8.54L974,909.14l.08,0c2.17-.73,4.24-1.77,6.45-2.38l.14,0c1.43-.69,2.85-1.39,4.29-2.07Z"/><line class="cls-6" x1="973.94" y1="695.41" x2="973.94" y2="818.29"/><line class="cls-6" x1="974.58" y1="818.97" x2="857.84" y2="868.12"/><line class="cls-6" x1="973.89" y1="818.97" x2="1090.63" y2="868.12"/><polyline class="cls-4" points="1078.9 867.92 1078.9 745.05 1087.75 745.05 1087.75 864.48"/><polygon class="cls-1" points="1084.94 659.84 979.61 703.15 973.66 825.73 1084.6 775.66 1084.94 659.84"/><polygon class="cls-2" points="1090.83 659.5 1189.72 699.99 1190.41 819.24 1090.83 778.25 1090.83 659.5"/><polygon class="cls-3" points="1084.04 776.23 979.6 824.62 1084.04 862.25 1188.49 824.62 1084.04 776.23"/><path class="cls-4" d="M1080.67,770.86a3.1,3.1,0,0,1-1.36,1.37l3.76,8.32,111,46.31c1.35-.59,2.8-1,4.22-1.51v-5.41Z"/><path class="cls-4" d="M1089.82,770.86,971,820.43v4.78c1.56.67,3.1,1.44,4.69,1.95l110.48-46.07,4.21-9.31A3.35,3.35,0,0,1,1089.82,770.86Z"/><polyline class="cls-4" points="1078.42 782.38 1078.42 659.5 1090.71 659.5 1090.71 778.94"/><polyline class="cls-4" points="971.16 825.38 971.16 702.51 980.01 702.51 980.01 821.94"/><path class="cls-4" d="M1198.2,707.45c-.14-2.23.27-4.56,0-6.79L1085,653.45a27,27,0,0,1-4.36,1.53l-.53.2,2.74,6.06,115.54,48.19C1198.31,708.77,1198.25,708.11,1198.2,707.45Z"/><path class="cls-5" d="M1086.59,654c-.53-.16-1-.34-1.55-.55L971.08,701v2c0,2.18.19,4.42.1,6.63l114.73-47.85L1089,655A19.55,19.55,0,0,1,1086.59,654Z"/><path class="cls-4" d="M1198.34,816.46l-125.93,46.18h0c3.92,1.34,7.88,2.58,11.69,4.23L1198.33,825C1198.31,822.15,1198.28,819.31,1198.34,816.46Z"/><path class="cls-4" d="M971,816.65v8.54l113.32,41.55.08,0c2.17-.73,4.24-1.76,6.45-2.38l.14,0c1.43-.69,2.85-1.39,4.29-2.07Z"/><polyline class="cls-4" points="1189.26 825.53 1189.26 702.65 1198.11 702.65 1198.11 822.08"/><polygon class="cls-2" points="863.54 659.84 968.87 703.15 974.81 825.73 863.88 775.66 863.54 659.84"/><polygon class="cls-1" points="857.64 659.5 758.76 699.99 758.06 819.24 857.64 778.25 857.64 659.5"/><polygon class="cls-3" points="864.43 776.23 968.88 824.62 864.43 862.25 759.98 824.62 864.43 776.23"/><path class="cls-4" d="M867.81,770.86a3,3,0,0,0,1.35,1.37l-3.76,8.32-111,46.31c-1.36-.59-2.8-1-4.23-1.51v-5.41Z"/><path class="cls-4" d="M858.65,770.86l118.86,49.57v4.78c-1.56.67-3.1,1.44-4.68,1.95L862.34,781.09l-4.2-9.31A3.32,3.32,0,0,0,858.65,770.86Z"/><polyline class="cls-4" points="870.05 782.38 870.05 659.5 857.76 659.5 857.76 778.94"/><polyline class="cls-4" points="977.31 825.38 977.31 702.51 968.46 702.51 968.46 821.94"/><path class="cls-4" d="M750.27,707.45c.14-2.23-.27-4.56,0-6.79l113.21-47.21a26.55,26.55,0,0,0,4.35,1.53l.53.2-2.74,6.06L750.08,709.43C750.16,708.77,750.23,708.11,750.27,707.45Z"/><path class="cls-5" d="M861.88,654a15.79,15.79,0,0,0,1.55-.55l114,47.52v2c0,2.18-.19,4.42-.1,6.63L862.57,661.77,859.49,655A19.55,19.55,0,0,0,861.88,654Z"/><path class="cls-4" d="M750.13,816.46l125.93,46.18h0c-3.92,1.34-7.88,2.58-11.68,4.23L750.14,825C750.16,822.15,750.19,819.31,750.13,816.46Z"/><path class="cls-4" d="M977.47,816.65v8.54L864.16,866.74l-.09,0c-2.17-.73-4.24-1.76-6.45-2.38l-.14,0c-1.43-.69-2.85-1.39-4.29-2.07Z"/><line class="cls-6" x1="864.18" y1="653.01" x2="864.18" y2="775.89"/><line class="cls-6" x1="863.54" y1="776.57" x2="980.27" y2="825.73"/><line class="cls-6" x1="864.22" y1="776.57" x2="747.48" y2="825.73"/><polyline class="cls-4" points="759.21 825.53 759.21 702.65 750.36 702.65 750.36 822.08"/><polygon class="cls-1" points="974.67 615.51 869.34 658.83 863.4 781.4 974.33 731.34 974.67 615.51"/><polygon class="cls-2" points="980.56 615.17 1079.45 655.66 1080.14 774.92 980.56 733.93 980.56 615.17"/><polygon class="cls-3" points="973.78 731.91 869.33 780.29 973.78 817.92 1078.23 780.29 973.78 731.91"/><path class="cls-4" d="M970.4,726.54a3,3,0,0,1-1.35,1.36l3.76,8.33,111,46.31c1.36-.6,2.8-1,4.23-1.51v-5.42Z"/><path class="cls-4" d="M979.56,726.54,860.7,776.11v4.78c1.56.66,3.1,1.43,4.68,2l110.49-46.08,4.2-9.3A3.32,3.32,0,0,1,979.56,726.54Z"/><polyline class="cls-4" points="968.16 738.05 968.16 615.18 980.45 615.18 980.45 734.61"/><polyline class="cls-4" points="860.9 781.06 860.9 658.18 869.75 658.18 869.75 777.62"/><path class="cls-4" d="M1087.94,663.12c-.14-2.23.26-4.56,0-6.78L974.73,609.13a27.27,27.27,0,0,1-4.36,1.53l-.52.2,2.73,6.06,115.55,48.18C1088.05,664.45,1088,663.79,1087.94,663.12Z"/><path class="cls-5" d="M976.32,609.68c-.52-.17-1-.35-1.54-.55l-114,47.52v2c0,2.18.19,4.42.1,6.63l114.72-47.85,3.08-6.81A19.06,19.06,0,0,1,976.32,609.68Z"/><path class="cls-4" d="M1088.08,772.14,962.15,818.31l0,0c3.93,1.34,7.88,2.57,11.69,4.23l114.21-41.88C1088.05,777.83,1088,775,1088.08,772.14Z"/><path class="cls-4" d="M860.74,772.33v8.54l113.31,41.55.08,0c2.18-.73,4.25-1.77,6.46-2.38l.14,0c1.43-.69,2.85-1.4,4.28-2.07Z"/><polyline class="cls-4" points="1079 781.2 1079 658.33 1087.85 658.33 1087.85 777.76"/><polygon class="cls-2" points="746.9 376.72 852.23 420.03 858.17 542.6 747.24 492.54 746.9 376.72"/><polygon class="cls-1" points="741 376.37 642.12 416.87 641.42 536.12 741 495.13 741 376.37"/><polygon class="cls-3" points="747.79 493.11 852.24 541.49 747.79 579.13 643.34 541.49 747.79 493.11"/><path class="cls-4" d="M751.17,487.74a3,3,0,0,0,1.35,1.36l-3.76,8.33-111,46.31c-1.36-.6-2.8-1-4.23-1.51v-5.42Z"/><path class="cls-4" d="M742,487.74l118.86,49.57v4.78c-1.56.66-3.1,1.43-4.68,1.95L745.7,498l-4.2-9.3A3.32,3.32,0,0,0,742,487.74Z"/><polyline class="cls-4" points="753.41 499.25 753.41 376.38 741.12 376.38 741.12 495.81"/><polyline class="cls-4" points="860.67 542.26 860.67 419.38 851.82 419.38 851.82 538.82"/><path class="cls-4" d="M633.63,424.32c.14-2.23-.26-4.56,0-6.78l113.21-47.21a27.51,27.51,0,0,0,4.35,1.53l.53.2L749,378.12,633.44,426.3C633.52,425.65,633.59,425,633.63,424.32Z"/><path class="cls-5" d="M745.24,370.88c.53-.17,1-.35,1.55-.55l114,47.52v2c0,2.18-.19,4.42-.1,6.63L745.93,378.65l-3.08-6.81A18.92,18.92,0,0,0,745.24,370.88Z"/><path class="cls-4" d="M633.49,533.34l125.93,46.18h0c-3.92,1.34-7.88,2.57-11.68,4.23L633.5,541.88C633.52,539,633.55,536.18,633.49,533.34Z"/><path class="cls-4" d="M860.83,533.53v8.54L747.52,583.62l-.09,0c-2.17-.73-4.24-1.77-6.45-2.38l-.14,0c-1.43-.69-2.85-1.4-4.29-2.07Z"/><polyline class="cls-4" points="642.57 542.4 642.57 419.53 633.72 419.53 633.72 538.96"/><polygon class="cls-1" points="1079.03 333.61 973.69 376.93 967.75 499.5 1078.68 449.43 1079.03 333.61"/><polygon class="cls-2" points="1084.92 333.27 1183.81 373.76 1184.5 493.01 1084.92 452.03 1084.92 333.27"/><polygon class="cls-3" points="1078.13 450.01 973.68 498.39 1078.13 536.02 1182.58 498.39 1078.13 450.01"/><path class="cls-4" d="M1074.75,444.64a3,3,0,0,1-1.35,1.36l3.76,8.33,111,46.31c1.36-.6,2.8-1,4.23-1.51v-5.42Z"/><path class="cls-4" d="M1083.91,444.63,965.05,494.2V499c1.56.66,3.1,1.43,4.68,1.95l110.49-46.08,4.2-9.31A3.06,3.06,0,0,1,1083.91,444.63Z"/><polyline class="cls-4" points="1072.51 456.15 1072.51 333.27 1084.8 333.27 1084.8 452.71"/><polyline class="cls-4" points="965.25 499.16 965.25 376.28 974.1 376.28 974.1 495.71"/><path class="cls-4" d="M1192.29,381.22c-.14-2.23.27-4.56,0-6.78l-113.21-47.22a25.64,25.64,0,0,1-4.35,1.53l-.53.21,2.74,6.06,115.54,48.18C1192.4,382.54,1192.33,381.88,1192.29,381.22Z"/><path class="cls-5" d="M1080.68,327.78c-.53-.17-1-.35-1.55-.56l-114,47.53v2c0,2.18.19,4.43.1,6.63L1080,335.55l3.08-6.81A19.55,19.55,0,0,1,1080.68,327.78Z"/><path class="cls-4" d="M1192.43,490.23,1066.5,536.41l0,0c3.92,1.33,7.88,2.57,11.69,4.23l114.2-41.88C1192.4,495.93,1192.37,493.08,1192.43,490.23Z"/><path class="cls-4" d="M965.09,490.43V499l113.32,41.55a.19.19,0,0,1,.08,0c2.17-.74,4.24-1.77,6.45-2.39l.14,0c1.43-.69,2.85-1.4,4.29-2.07Z"/><polyline class="cls-4" points="1183.35 499.3 1183.35 376.42 1192.2 376.42 1192.2 495.86"/><polygon class="cls-7" points="968.76 210.1 863.43 253.41 857.49 375.99 968.42 325.92 968.76 210.1"/><polygon class="cls-8" points="974.65 209.76 1073.54 250.25 1074.23 369.5 974.65 328.51 974.65 209.76"/><polygon class="cls-8" points="967.87 326.49 863.42 374.88 967.87 412.51 1072.31 374.88 967.87 326.49"/><path class="cls-4" d="M964.49,321.12a3,3,0,0,1-1.35,1.37l3.76,8.32,111,46.31c1.36-.59,2.8-1,4.23-1.51V370.2Z"/><path class="cls-4" d="M973.65,321.12,854.78,370.69v4.78c1.57.67,3.11,1.44,4.69,1.95L970,331.35l4.2-9.31A3.19,3.19,0,0,1,973.65,321.12Z"/><polyline class="cls-4" points="962.25 332.64 962.25 209.76 974.54 209.76 974.54 329.2"/><polyline class="cls-4" points="854.99 375.64 854.99 252.77 863.84 252.77 863.84 372.2"/><path class="cls-4" d="M1082,257.71c-.15-2.23.26-4.56,0-6.78L968.82,203.71a26.33,26.33,0,0,1-4.36,1.53l-.53.2,2.74,6.06,115.55,48.19C1082.14,259,1082.07,258.37,1082,257.71Z"/><path class="cls-5" d="M970.41,204.26c-.52-.16-1-.34-1.54-.55l-114,47.53v2c0,2.18.18,4.42.1,6.63L969.73,212l3.08-6.82A19.06,19.06,0,0,1,970.41,204.26Z"/><path class="cls-4" d="M1082.17,366.72,956.24,412.9h0c3.93,1.34,7.88,2.58,11.69,4.23l114.21-41.87C1082.14,372.41,1082.1,369.57,1082.17,366.72Z"/><path class="cls-4" d="M854.82,366.91v8.54L968.14,417l.08,0c2.17-.73,4.25-1.76,6.45-2.38l.15,0c1.42-.69,2.85-1.4,4.28-2.08Z"/><polyline class="cls-4" points="1073.09 375.79 1073.09 252.91 1081.93 252.91 1081.93 372.35"/><polygon class="cls-1" points="1189.28 499.51 1083.94 542.82 1078 665.4 1188.93 615.33 1189.28 499.51"/><polygon class="cls-2" points="1195.17 499.17 1294.06 539.66 1294.75 658.91 1195.17 617.92 1195.17 499.17"/><polygon class="cls-3" points="1188.38 615.9 1083.93 664.29 1188.38 701.92 1292.83 664.29 1188.38 615.9"/><path class="cls-4" d="M1185,610.53a3,3,0,0,1-1.35,1.37l3.76,8.32,111,46.31c1.36-.59,2.8-1,4.23-1.51v-5.41Z"/><path class="cls-4" d="M1194.16,610.53,1075.3,660.1v4.78c1.56.67,3.1,1.44,4.68,2l110.49-46.07,4.2-9.31A3.32,3.32,0,0,1,1194.16,610.53Z"/><polyline class="cls-4" points="1182.76 622.05 1182.76 499.17 1195.05 499.17 1195.05 618.61"/><polyline class="cls-4" points="1075.5 665.05 1075.5 542.18 1084.35 542.18 1084.35 661.61"/><path class="cls-4" d="M1302.54,547.12c-.14-2.23.27-4.56,0-6.79l-113.21-47.21a26.55,26.55,0,0,1-4.35,1.53l-.53.2,2.74,6.06,115.54,48.19C1302.65,548.44,1302.58,547.78,1302.54,547.12Z"/><path class="cls-5" d="M1190.93,493.67a15.79,15.79,0,0,1-1.55-.55l-114,47.52v2c0,2.18.19,4.42.1,6.63l114.72-47.85,3.08-6.81A19.55,19.55,0,0,1,1190.93,493.67Z"/><path class="cls-4" d="M1302.68,656.13l-125.93,46.18h0c3.92,1.34,7.88,2.58,11.69,4.23l114.2-41.88C1302.65,661.82,1302.62,659,1302.68,656.13Z"/><path class="cls-4" d="M1075.34,656.32v8.54l113.32,41.55.08,0c2.17-.73,4.24-1.76,6.45-2.38l.14,0c1.43-.69,2.85-1.39,4.29-2.07Z"/><polyline class="cls-4" points="1293.6 665.2 1293.6 542.32 1302.45 542.32 1302.45 661.75"/><polygon class="cls-9" points="624.22 512.48 729.55 555.79 735.5 678.37 624.56 628.3 624.22 512.48"/><polygon class="cls-10" points="618.33 512.14 519.44 552.63 518.75 671.88 618.33 630.89 618.33 512.14"/><polygon class="cls-11" points="625.12 628.87 729.56 677.26 625.12 714.89 520.67 677.26 625.12 628.87"/><path class="cls-4" d="M628.49,623.5a3.05,3.05,0,0,0,1.36,1.37l-3.76,8.32L515,679.5c-1.35-.59-2.8-1-4.22-1.51v-5.41Z"/><path class="cls-4" d="M619.34,623.5,738.2,673.07v4.78c-1.56.67-3.1,1.44-4.69,1.95L623,633.73l-4.21-9.31A3.64,3.64,0,0,0,619.34,623.5Z"/><polyline class="cls-4" points="630.73 635.02 630.73 512.14 618.45 512.14 618.45 631.58"/><polyline class="cls-4" points="738 678.02 738 555.15 729.15 555.15 729.15 674.58"/><path class="cls-4" d="M511,560.09c.15-2.23-.26-4.56,0-6.79l113.21-47.21a27,27,0,0,0,4.36,1.53l.53.2-2.74,6.06L510.77,562.07C510.84,561.41,510.91,560.75,511,560.09Z"/><path class="cls-5" d="M622.57,506.64c.52-.16,1-.34,1.55-.55l114,47.52v2c0,2.18-.19,4.42-.1,6.63L623.25,514.41l-3.08-6.81A19.06,19.06,0,0,0,622.57,506.64Z"/><path class="cls-4" d="M510.81,669.1l125.94,46.18h0c-3.93,1.34-7.88,2.58-11.69,4.23l-114.2-41.88C510.84,674.79,510.88,672,510.81,669.1Z"/><path class="cls-4" d="M738.16,669.29v8.54L624.84,719.38l-.08,0c-2.17-.73-4.24-1.76-6.45-2.38l-.14,0c-1.43-.7-2.85-1.4-4.29-2.08Z"/><polyline class="cls-4" points="519.9 678.17 519.9 555.29 511.05 555.29 511.05 674.73"/><polygon class="cls-2" points="857.15 456.4 962.48 499.72 968.42 622.29 857.49 572.23 857.15 456.4"/><polygon class="cls-1" points="851.25 456.06 752.37 496.55 751.67 615.81 851.25 574.82 851.25 456.06"/><polygon class="cls-3" points="858.04 572.8 962.49 621.18 858.04 658.82 753.59 621.18 858.04 572.8"/><path class="cls-4" d="M861.42,567.43a3,3,0,0,0,1.35,1.36L859,577.12,748,623.43c-1.36-.6-2.8-1-4.23-1.51V616.5Z"/><path class="cls-4" d="M852.26,567.43,971.12,617v4.78c-1.56.66-3.1,1.43-4.68,2L856,577.65l-4.2-9.3A3.32,3.32,0,0,0,852.26,567.43Z"/><polyline class="cls-4" points="863.66 578.95 863.66 456.07 851.37 456.07 851.37 575.5"/><polyline class="cls-4" points="970.92 621.95 970.92 499.07 962.07 499.07 962.07 618.51"/><path class="cls-4" d="M743.88,504c.14-2.23-.26-4.56,0-6.78L857.09,450a27.51,27.51,0,0,0,4.35,1.53l.53.2-2.74,6.06L743.69,506C743.77,505.34,743.84,504.68,743.88,504Z"/><path class="cls-5" d="M855.49,450.57c.53-.17,1-.35,1.55-.55l114,47.52v2c0,2.18-.19,4.42-.1,6.63L856.18,458.34l-3.08-6.81A18.92,18.92,0,0,0,855.49,450.57Z"/><path class="cls-4" d="M743.74,613,869.67,659.2l0,0c-3.92,1.34-7.88,2.57-11.68,4.23L743.75,621.57C743.77,618.72,743.8,615.87,743.74,613Z"/><path class="cls-4" d="M971.08,613.22v8.54L857.77,663.31l-.09,0c-2.17-.73-4.24-1.77-6.45-2.38l-.14,0c-1.43-.69-2.85-1.4-4.29-2.07Z"/><polyline class="cls-4" points="752.82 622.09 752.82 499.22 743.97 499.22 743.97 618.65"/><polygon class="cls-1" points="968.28 412.08 862.95 455.39 857.01 577.97 967.94 527.9 968.28 412.08"/><polygon class="cls-2" points="974.17 411.74 1073.06 452.23 1073.76 571.48 974.17 530.5 974.17 411.74"/><polygon class="cls-3" points="967.39 528.48 862.94 576.86 967.39 614.49 1071.84 576.86 967.39 528.48"/><path class="cls-4" d="M964,523.11a3.06,3.06,0,0,1-1.35,1.36l3.76,8.33,111,46.31c1.36-.6,2.8-1,4.23-1.51v-5.42Z"/><path class="cls-4" d="M973.17,523.1,854.31,572.67v4.79c1.56.66,3.1,1.43,4.68,1.95l110.49-46.08,4.2-9.31A3.06,3.06,0,0,1,973.17,523.1Z"/><polyline class="cls-4" points="961.77 534.62 961.77 411.74 974.06 411.74 974.06 531.18"/><polyline class="cls-4" points="854.51 577.63 854.51 454.75 863.36 454.75 863.36 574.18"/><path class="cls-4" d="M1081.55,459.69c-.14-2.23.26-4.56,0-6.78L968.34,405.69a25.44,25.44,0,0,1-4.36,1.53l-.52.21,2.73,6.05,115.55,48.19C1081.66,461,1081.59,460.35,1081.55,459.69Z"/><path class="cls-5" d="M969.93,406.25c-.52-.17-1-.35-1.54-.56l-114,47.53v2c0,2.18.19,4.43.1,6.63L969.25,414l3.08-6.81A19.06,19.06,0,0,1,969.93,406.25Z"/><path class="cls-4" d="M1081.69,568.7,955.76,614.88l0,0c3.93,1.33,7.88,2.57,11.69,4.22l114.21-41.87C1081.66,574.4,1081.63,571.55,1081.69,568.7Z"/><path class="cls-4" d="M854.35,568.9v8.53L967.66,619l.08,0c2.18-.73,4.25-1.76,6.46-2.38l.14,0c1.43-.69,2.85-1.4,4.28-2.07Z"/><polyline class="cls-4" points="1072.61 577.77 1072.61 454.89 1081.46 454.89 1081.46 574.33"/><polygon class="cls-12" points="1275.97 646.28 1170.64 689.59 1164.7 812.17 1275.63 762.1 1275.97 646.28"/><polygon class="cls-13" points="1281.86 645.94 1380.75 686.43 1381.44 805.68 1281.86 764.7 1281.86 645.94"/><polygon class="cls-14" points="1275.08 762.67 1170.63 811.06 1275.08 848.69 1379.53 811.06 1275.08 762.67"/><path class="cls-4" d="M1271.7,757.3a3,3,0,0,1-1.35,1.37l3.76,8.33,111,46.3c1.36-.59,2.8-1,4.23-1.5v-5.42Z"/><path class="cls-4" d="M1280.86,757.3,1162,806.87v4.78c1.56.67,3.1,1.44,4.68,2l110.49-46.08,4.2-9.31A3.19,3.19,0,0,1,1280.86,757.3Z"/><polyline class="cls-4" points="1269.46 768.82 1269.46 645.94 1281.75 645.94 1281.75 765.38"/><polyline class="cls-4" points="1162.2 811.83 1162.2 688.95 1171.05 688.95 1171.05 808.38"/><path class="cls-4" d="M1389.24,693.89c-.14-2.23.26-4.56,0-6.78L1276,639.89a26.33,26.33,0,0,1-4.36,1.53l-.52.2,2.73,6.06,115.55,48.19C1389.35,695.21,1389.28,694.55,1389.24,693.89Z"/><path class="cls-5" d="M1277.62,640.44c-.52-.16-1-.34-1.54-.55l-114,47.53v2c0,2.18.19,4.43.1,6.63l114.72-47.84,3.08-6.81A19.12,19.12,0,0,1,1277.62,640.44Z"/><path class="cls-4" d="M1389.38,802.9l-125.93,46.18,0,0c3.93,1.33,7.88,2.57,11.69,4.22l114.21-41.87C1389.35,808.6,1389.32,805.75,1389.38,802.9Z"/><path class="cls-4" d="M1162,803.09v8.54l113.31,41.56.08,0c2.18-.73,4.25-1.76,6.46-2.38l.14,0c1.43-.69,2.85-1.4,4.28-2.07Z"/><polyline class="cls-4" points="1380.3 811.97 1380.3 689.09 1389.14 689.09 1389.14 808.53"/><polygon class="cls-2" points="747.1 616.93 852.43 660.24 858.38 782.81 747.44 732.75 747.1 616.93"/><polygon class="cls-1" points="741.21 616.59 642.32 657.08 641.63 776.33 741.21 735.34 741.21 616.59"/><polygon class="cls-3" points="748 733.32 852.44 781.7 748 819.34 643.55 781.7 748 733.32"/><path class="cls-4" d="M751.37,728a3.05,3.05,0,0,0,1.36,1.37L749,737.64,637.92,784c-1.35-.6-2.8-1-4.22-1.51V777Z"/><path class="cls-4" d="M742.22,728l118.86,49.57v4.78c-1.56.66-3.1,1.43-4.69,2L745.91,738.17l-4.21-9.3A3.64,3.64,0,0,0,742.22,728Z"/><polyline class="cls-4" points="753.61 739.47 753.61 616.59 741.33 616.59 741.33 736.02"/><polyline class="cls-4" points="860.88 782.47 860.88 659.59 852.03 659.59 852.03 779.03"/><path class="cls-4" d="M633.83,664.54c.15-2.24-.26-4.57,0-6.79L747,610.54a27,27,0,0,0,4.36,1.53l.53.2-2.74,6.06L633.65,666.52C633.72,665.86,633.79,665.2,633.83,664.54Z"/><path class="cls-5" d="M745.45,611.09c.52-.17,1-.35,1.55-.55l114,47.52v2c0,2.18-.19,4.42-.1,6.63L746.13,618.86l-3.08-6.81A19.06,19.06,0,0,0,745.45,611.09Z"/><path class="cls-4" d="M633.69,773.55l125.94,46.18h0c-3.93,1.34-7.88,2.58-11.69,4.23l-114.2-41.88C633.72,779.24,633.76,776.39,633.69,773.55Z"/><path class="cls-4" d="M861,773.74v8.54L747.72,823.83l-.08,0c-2.17-.73-4.24-1.77-6.45-2.38l-.14,0c-1.43-.69-2.85-1.39-4.29-2.07Z"/><polyline class="cls-4" points="642.78 782.62 642.78 659.74 633.93 659.74 633.93 779.17"/><polygon class="cls-1" points="1079.23 573.82 973.9 617.14 967.96 739.71 1078.89 689.64 1079.23 573.82"/><polygon class="cls-2" points="1085.12 573.48 1184.01 613.97 1184.7 733.23 1085.12 692.24 1085.12 573.48"/><polygon class="cls-3" points="1078.34 690.22 973.89 738.6 1078.34 776.23 1182.78 738.6 1078.34 690.22"/><path class="cls-4" d="M1075,684.85a3,3,0,0,1-1.36,1.36l3.77,8.33,111,46.31c1.35-.6,2.8-1,4.22-1.51v-5.42Z"/><path class="cls-4" d="M1084.11,684.84,965.25,734.41v4.79c1.56.66,3.1,1.43,4.69,1.95l110.48-46.08,4.21-9.31A3.32,3.32,0,0,1,1084.11,684.84Z"/><polyline class="cls-4" points="1072.72 696.36 1072.72 573.48 1085.01 573.48 1085.01 692.92"/><polyline class="cls-4" points="965.46 739.37 965.46 616.49 974.3 616.49 974.3 735.93"/><path class="cls-4" d="M1192.5,621.43c-.15-2.23.26-4.56,0-6.78l-113.21-47.21a26.92,26.92,0,0,1-4.36,1.52l-.53.21,2.74,6.06,115.54,48.18C1192.61,622.75,1192.54,622.09,1192.5,621.43Z"/><path class="cls-5" d="M1080.88,568c-.52-.17-1-.35-1.55-.56L965.37,615v2c0,2.18.19,4.43.1,6.63l114.73-47.84,3.08-6.81A19.06,19.06,0,0,1,1080.88,568Z"/><path class="cls-4" d="M1192.64,730.44,1066.7,776.62l0,0c3.93,1.33,7.88,2.57,11.69,4.23L1192.63,739C1192.61,736.14,1192.57,733.29,1192.64,730.44Z"/><path class="cls-4" d="M965.29,730.64v8.54l113.32,41.55.08,0c2.17-.73,4.24-1.77,6.45-2.39l.14,0c1.43-.69,2.85-1.4,4.29-2.07Z"/><polyline class="cls-4" points="1183.55 739.51 1183.55 616.63 1192.4 616.63 1192.4 736.07"/><polygon class="cls-1" points="968.97 529.5 863.63 572.81 857.69 695.39 968.63 645.32 968.97 529.5"/><polygon class="cls-2" points="974.86 529.16 1073.75 569.65 1074.44 688.9 974.86 647.91 974.86 529.16"/><polygon class="cls-3" points="968.07 645.89 863.62 694.28 968.07 731.91 1072.52 694.28 968.07 645.89"/><path class="cls-4" d="M964.69,640.52a3,3,0,0,1-1.35,1.37l3.76,8.32,111.05,46.31c1.35-.59,2.8-1,4.22-1.51V689.6Z"/><path class="cls-4" d="M973.85,640.52,855,690.09v4.78c1.56.67,3.1,1.44,4.68,2l110.49-46.07,4.2-9.31A3.6,3.6,0,0,1,973.85,640.52Z"/><polyline class="cls-4" points="962.45 652.04 962.45 529.16 974.74 529.16 974.74 648.6"/><polyline class="cls-4" points="855.19 695.04 855.19 572.17 864.04 572.17 864.04 691.6"/><path class="cls-4" d="M1082.23,577.11c-.14-2.23.27-4.56,0-6.79L969,523.11a27,27,0,0,1-4.36,1.53l-.53.2,2.74,6.06,115.54,48.19C1082.34,578.43,1082.28,577.77,1082.23,577.11Z"/><path class="cls-5" d="M970.62,523.66c-.53-.16-1-.34-1.55-.55l-114,47.53v2c0,2.18.19,4.42.1,6.63l114.73-47.84,3.07-6.82A19.55,19.55,0,0,1,970.62,523.66Z"/><path class="cls-4" d="M1082.37,686.12,956.44,732.3h0c3.92,1.34,7.88,2.58,11.69,4.23l114.2-41.87C1082.34,691.81,1082.31,689,1082.37,686.12Z"/><path class="cls-4" d="M855,686.31v8.54L968.35,736.4l.08,0c2.17-.73,4.24-1.76,6.45-2.38l.14,0c1.43-.7,2.85-1.4,4.29-2.08Z"/><polyline class="cls-4" points="1073.29 695.19 1073.29 572.31 1082.14 572.31 1082.14 691.75"/><polygon class="cls-22" points="496.61 243.63 558.39 226.57 603.29 279.03 536.7 295.02 496.61 243.63"/><polygon class="cls-23" points="493.87 245.51 463.86 297.62 504.68 350.88 534.82 298.32 493.87 245.51"/><polygon class="cls-24" points="537.14 295.08 600.27 280.58 566.8 333.33 507.38 352.61 537.14 295.08"/><path class="cls-4" d="M536.79,291.53a1.8,1.8,0,0,0,1.08.14l1.2,5-33.42,58.88c-.8.2-1.6.51-2.39.79l-1.87-2.41Z"/><path class="cls-4" d="M532.72,294.68l69.95-18.94,1.65,2.13c-.47.83-.89,1.71-1.41,2.48l-65,17.61-5.08-2.69A2,2,0,0,0,532.72,294.68Z"/><polyline class="cls-4" points="541.76 295.88 499.39 241.23 493.93 245.47 535.11 298.58"/><polyline class="cls-4" points="604.29 278.01 561.92 223.37 557.98 226.42 599.17 279.54"/><path class="cls-4" d="M462.66,303.86c-.71-1-1.69-1.94-2.34-3l34.06-60a14.6,14.6,0,0,0,2.47-.82l.3-.09.87,3.63L463.26,304.8C463.07,304.48,462.87,304.17,462.66,303.86Z"/><path class="cls-5" d="M493.86,241.6c.18-.25.35-.51.5-.77l67.07-18.17.69.9c.75,1,1.44,2,2.24,3l-67.51,18.29-3.72-2A9.83,9.83,0,0,0,493.86,241.6Z"/><path class="cls-4" d="M500.19,352.38l71.92-22.89v0c-1.28,1.95-2.61,3.86-3.74,5.91l-65.22,20.76C502.16,354.9,501.2,353.63,500.19,352.38Z"/><path class="cls-4" d="M601.35,274.08l2.94,3.79-36.06,57.55,0,0c-1.22.42-2.5.68-3.69,1.16l-.08,0-2.62.55Z"/><polyline class="cls-4" points="507.35 353.28 464.98 298.64 461.05 301.69 502.23 354.8"/><polygon class="cls-25" points="706.18 153.36 778.27 195.42 770.22 285 694.75 237.46 706.18 153.36"/><polygon class="cls-26" points="701.94 152.52 626.08 171.93 613.55 258.43 689.96 238.72 701.94 152.52"/><polygon class="cls-27" points="695.09 237.94 766.03 283.59 686.42 300.37 614.4 262.52 695.09 237.94"/><path class="cls-4" d="M698.08,234.38a2.35,2.35,0,0,0,.85,1.13l-3.57,5.66-85.27,22.41c-.93-.57-1.93-1-2.92-1.52l.55-3.93Z"/><path class="cls-4" d="M691.44,233.45l81.28,48-.48,3.48c-1.21.32-2.4.72-3.6.94l-75.55-44.59L691,234.07A2.36,2.36,0,0,0,691.44,233.45Z"/><polyline class="cls-4" points="698.55 242.96 710.95 153.77 702.03 152.53 689.98 239.23"/><polyline class="cls-4" points="772.07 285 784.47 195.81 778.04 194.91 765.99 281.61"/><path class="cls-4" d="M619.16,176.49c.33-1.6.27-3.34.69-4.92l86.94-22.85a19.88,19.88,0,0,0,3,1.55l.37.2-2.6,4.12-88.73,23.32C619,177.44,619.07,177,619.16,176.49Z"/><path class="cls-5" d="M705.57,149c.4-.07.79-.15,1.18-.25l77.93,46-.21,1.46c-.22,1.59-.58,3.2-.74,4.81l-78.45-46.3-1.54-5.26A12.86,12.86,0,0,0,705.57,149Z"/><path class="cls-4" d="M608.07,255.61l86.75,46.22h0c-3,.57-6,1.07-8.91,1.89l-78.68-41.92C607.51,259.74,607.83,257.68,608.07,255.61Z"/><path class="cls-4" d="M773.07,278.68l-.86,6.2-86.45,18.73,0,0c-1.51-.75-2.9-1.71-4.44-2.38l-.1,0c-1-.65-1.93-1.3-2.91-1.94Z"/><polyline class="cls-4" points="613.75 263.1 626.14 173.91 619.72 173.02 607.67 259.71"/><polygon class="cls-28" points="1516.02 320.05 1541.11 365.06 1508.68 410.13 1483.51 361.15 1516.02 320.05"/><polygon class="cls-29" points="1514.03 318.27 1467.61 304.74 1433.77 346.77 1480.57 360.31 1514.03 318.27"/><polygon class="cls-30" points="1483.55 361.51 1506.89 408.06 1459.31 391.96 1432.94 349.21 1483.55 361.51"/><path class="cls-4" d="M1486.25,360.56a1.43,1.43,0,0,0,.1.86l-3.68,1.89-52.36-14.89c-.31-.59-.7-1.15-1.07-1.72l1.53-1.92Z"/><path class="cls-4" d="M1483,358l28.12,51-1.35,1.7c-.74-.21-1.5-.37-2.21-.63l-26.13-47.44,1.13-4.48A1.57,1.57,0,0,0,1483,358Z"/><polyline class="cls-4" points="1483.8 365.27 1518.42 321.76 1514.07 318.3 1480.42 360.59"/><polyline class="cls-4" points="1509.66 410.71 1544.28 367.21 1541.15 364.71 1507.5 407"/><path class="cls-4" d="M1462.51,305c.68-.75,1.19-1.68,1.91-2.4l53.38,15.18a12.05,12.05,0,0,0,1.11,1.77l.13.22-2.68,1.37-54.48-15.49C1462.1,305.43,1462.31,305.22,1462.51,305Z"/><path class="cls-5" d="M1517.08,317.52c.23.09.47.17.7.24l27,48.93-.57.71c-.61.77-1.31,1.52-1.9,2.32l-27.14-49.26.83-3.28A8.52,8.52,0,0,0,1517.08,317.52Z"/><path class="cls-4" d="M1431.75,343.55l31.57,51.82h0c-1.77-.63-3.52-1.31-5.33-1.79l-28.64-47C1430.15,345.57,1431,344.57,1431.75,343.55Z"/><path class="cls-4" d="M1512.18,407.66l-2.41,3L1458,393.47l0,0c-.56-.87-1-1.82-1.61-2.66l0,0c-.32-.65-.62-1.3-.94-1.94Z"/><polyline class="cls-4" points="1432.41 349.32 1467.03 305.81 1463.89 303.32 1430.24 345.61"/><polygon class="cls-31" points="1408.33 90.84 1458.96 130.13 1443.79 197.5 1391.14 153.71 1408.33 90.84"/><polygon class="cls-32" points="1405.18 89.77 1345.48 96.9 1327.21 161.47 1387.37 154.18 1405.18 89.77"/><polygon class="cls-33" points="1391.35 154.1 1440.74 196.01 1378.45 200.75 1327.45 164.68 1391.35 154.1"/><path class="cls-4" d="M1394,151.7a1.69,1.69,0,0,0,.53.94l-3.29,4-67.17,8.46c-.65-.53-1.36-1-2.07-1.45l.82-2.94Z"/><path class="cls-4" d="M1389,150.32l57,44.72-.71,2.59c-.95.13-1.9.31-2.84.36l-53-41.57-.88-5.68A1.64,1.64,0,0,0,1389,150.32Z"/><polyline class="cls-4" points="1393.48 158.28 1411.91 91.64 1405.24 89.79 1387.33 154.57"/><polyline class="cls-4" points="1445.2 197.69 1463.63 131.05 1458.83 129.72 1440.92 194.5"/><path class="cls-4" d="M1339.75,99.67c.42-1.19.55-2.51,1-3.68l68.48-8.62a14.89,14.89,0,0,0,2.14,1.48l.25.19-2.39,2.88-69.89,8.8C1339.5,100.37,1339.63,100,1339.75,99.67Z"/><path class="cls-5" d="M1408.31,87.43c.31,0,.61,0,.92-.07l54.68,42.87-.31,1.09c-.32,1.19-.76,2.38-1,3.59l-55-43.16-.65-4.16A11.91,11.91,0,0,0,1408.31,87.43Z"/><path class="cls-4" d="M1323.33,158.77l61.37,43.94h0c-2.33.14-4.66.22-7,.54l-55.66-39.84C1322.49,161.87,1322.93,160.33,1323.33,158.77Z"/><path class="cls-4" d="M1446.6,193l-1.28,4.63-67.69,5.54,0,0c-1.07-.72-2-1.59-3.15-2.26l-.07,0c-.67-.59-1.33-1.18-2-1.76Z"/><polyline class="cls-4" points="1326.89 165.06 1345.32 98.41 1340.53 97.08 1322.61 161.86"/><polygon class="cls-34" points="1574.64 44.08 1618.38 48.97 1633.62 93.88 1587.08 87.07 1574.64 44.08"/><polygon class="cls-35" points="1572.41 44.58 1539.98 70.14 1552.4 114.52 1585.04 88.7 1572.41 44.58"/><polygon class="cls-36" points="1587.35 87.23 1631.3 94.1 1596.49 119.19 1553.69 116.31 1587.35 87.23"/><path class="cls-4" d="M1588,84.87a1.15,1.15,0,0,0,.65.37l-.51,3.49-36.34,29c-.56-.08-1.15-.09-1.73-.12l-.57-2Z"/><path class="cls-4" d="M1584.63,85.85l49.43,5.77.51,1.78c-.51.41-1,.86-1.53,1.22l-46-5.37-2.55-3A1.3,1.3,0,0,0,1584.63,85.85Z"/><polyline class="cls-4" points="1590.09 88.91 1577.02 43.26 1572.45 44.56 1585.16 88.94"/><polyline class="cls-4" points="1634.52 93.49 1621.45 47.83 1618.16 48.77 1630.86 93.15"/><path class="cls-4" d="M1537.62,73.81c-.19-.84-.59-1.66-.73-2.52l37-29.58a10.75,10.75,0,0,0,1.78.1l.22,0-.38,2.55-37.8,30.19C1537.72,74.31,1537.67,74.06,1537.62,73.81Z"/><path class="cls-5" d="M1573.4,42.08a4.49,4.49,0,0,0,.52-.37l47.39,5.54.22.75c.23.81.4,1.67.67,2.48l-47.72-5.58-1.86-2.2A9.22,9.22,0,0,0,1573.4,42.08Z"/><path class="cls-4" d="M1549.16,114.33l51.7,3.77h0c-1.32.92-2.65,1.8-3.89,2.82l-46.89-3.42C1549.77,116.44,1549.48,115.38,1549.16,114.33Z"/><path class="cls-4" d="M1633.65,90.22l.91,3.18-37.69,27.49h0c-.89,0-1.77-.2-2.65-.2h-.06l-1.81-.32Z"/><polyline class="cls-4" points="1553.5 116.73 1540.43 71.08 1537.14 72.02 1549.84 116.39"/><polygon class="cls-37" points="1339.35 249.55 1386.55 334.22 1325.54 419 1278.2 326.87 1339.35 249.55"/><polygon class="cls-38" points="1335.61 246.2 1248.29 220.76 1184.63 299.81 1272.67 325.29 1335.61 246.2"/><polygon class="cls-39" points="1278.26 327.54 1322.18 415.12 1232.67 384.83 1183.06 304.41 1278.26 327.54"/><path class="cls-4" d="M1283.36,325.76a2.6,2.6,0,0,0,.17,1.62l-6.91,3.55-98.5-28c-.59-1.11-1.31-2.17-2-3.24l2.87-3.61Z"/><path class="cls-4" d="M1277.26,320.9l52.89,96-2.53,3.19c-1.4-.39-2.83-.69-4.16-1.19l-49.16-89.24,2.13-8.43A2.85,2.85,0,0,0,1277.26,320.9Z"/><polyline class="cls-4" points="1278.74 334.61 1343.87 252.78 1335.69 246.26 1272.39 325.81"/><polyline class="cls-4" points="1327.39 420.1 1392.51 338.27 1386.62 333.58 1323.32 413.12"/><path class="cls-4" d="M1238.69,221.23c1.27-1.41,2.24-3.18,3.59-4.52l100.42,28.56a22.22,22.22,0,0,0,2.09,3.32c.08.14.16.28.25.42l-5,2.58-102.49-29.14C1237.91,222.05,1238.31,221.65,1238.69,221.23Z"/><path class="cls-5" d="M1341.35,244.79q.64.26,1.32.45l50.71,92.05-1.07,1.34c-1.16,1.45-2.47,2.85-3.58,4.36l-51-92.66,1.56-6.17A16.56,16.56,0,0,0,1341.35,244.79Z"/><path class="cls-4" d="M1180.82,293.76l59.39,97.49h0c-3.32-1.19-6.61-2.46-10-3.38l-53.86-88.42C1177.82,297.56,1179.35,295.69,1180.82,293.76Z"/><path class="cls-4" d="M1332.12,414.37l-4.52,5.69-97.49-32.38a.25.25,0,0,0,0-.07c-1.06-1.63-1.89-3.42-3-5l-.08-.1c-.58-1.22-1.16-2.44-1.76-3.65Z"/><polyline class="cls-4" points="1182.06 304.61 1247.18 222.77 1241.29 218.08 1177.99 297.63"/><polygon class="cls-40" points="547.24 74.91 571.46 118.36 540.15 161.88 515.85 114.59 547.24 74.91"/><polygon class="cls-41" points="545.32 73.19 500.5 60.13 467.82 100.7 513.01 113.78 545.32 73.19"/><polygon class="cls-42" points="515.88 114.94 538.42 159.88 492.48 144.34 467.02 103.06 515.88 114.94"/><path class="cls-4" d="M518.5,114a1.26,1.26,0,0,0,.09.83L515,116.68,464.48,102.3c-.3-.57-.67-1.12-1-1.67l1.47-1.85Z"/><path class="cls-4" d="M515.37,111.53l27.14,49.27-1.3,1.64c-.71-.2-1.45-.36-2.13-.61L513.85,116l1.09-4.33A1.43,1.43,0,0,0,515.37,111.53Z"/><polyline class="cls-4" points="516.13 118.56 549.55 76.56 545.35 73.22 512.87 114.04"/><polyline class="cls-4" points="541.1 162.44 574.52 120.44 571.5 118.03 539.01 158.86"/><path class="cls-4" d="M495.57,60.37c.65-.73,1.15-1.63,1.84-2.32L549,72.71a11.7,11.7,0,0,0,1.08,1.7l.12.22L547.57,76,495,61Z"/><path class="cls-5" d="M548.26,72.46a5.44,5.44,0,0,0,.68.23l26,47.25-.54.69c-.6.74-1.27,1.46-1.84,2.23L546.38,75.3l.8-3.16A9.61,9.61,0,0,0,548.26,72.46Z"/><path class="cls-4" d="M465.87,97.59l30.48,50h0c-1.71-.61-3.39-1.26-5.15-1.73l-27.64-45.38C464.33,99.55,465.11,98.58,465.87,97.59Z"/><path class="cls-4" d="M543.53,159.5l-2.33,2.92-50-16.62,0,0c-.55-.84-1-1.76-1.56-2.57l0,0c-.3-.63-.59-1.26-.9-1.88Z"/><polyline class="cls-4" points="466.5 103.16 499.93 61.16 496.9 58.75 464.42 99.58"/><polygon class="cls-43" points="589.79 2.61 630.49 8.39 648.9 47.93 605.44 40.4 589.79 2.61"/><polygon class="cls-44" points="587.79 2.97 560.46 24.04 576.23 63.03 603.72 41.74 587.79 2.97"/><polygon class="cls-45" points="605.7 40.54 646.79 48.04 617.24 68.62 577.59 64.63 605.7 40.54"/><path class="cls-4" d="M606.09,38.52a1.47,1.47,0,0,0,.64.34l-.13,3L576,65.81c-.52-.09-1.06-.12-1.6-.16l-.72-1.77Z"/><path class="cls-4" d="M603.06,39.24l46,6.75.64,1.56c-.43.34-.84.71-1.29,1l-42.78-6.27L603,39.58A.76.76,0,0,0,603.06,39.24Z"/><polyline class="cls-4" points="608.38 42.1 591.9 1.98 587.83 2.96 603.85 41.95"/><polyline class="cls-4" points="649.68 47.62 633.2 7.5 630.27 8.21 646.29 47.2"/><path class="cls-4" d="M558.65,27.15c-.25-.74-.7-1.47-.91-2.22L588.91.53a10.54,10.54,0,0,0,1.65.15l.2,0-.09,2.19L558.85,27.81C558.79,27.59,558.73,27.37,558.65,27.15Z"/><path class="cls-5" d="M588.46.84l.43-.31L633,7l.27.66c.29.71.53,1.45.86,2.17L589.72,3.32l-1.93-2A5.56,5.56,0,0,0,588.46.84Z"/><path class="cls-4" d="M573.23,62.75l47.91,5.07h0c-1.12.75-2.26,1.47-3.3,2.31l-43.45-4.6C574,64.61,573.63,63.67,573.23,62.75Z"/><path class="cls-4" d="M648.57,44.76l1.14,2.78-32,22.57h0c-.82-.07-1.65-.24-2.46-.27h0l-1.7-.34Z"/><polyline class="cls-4" points="577.45 64.99 560.97 24.87 558.04 25.57 574.06 64.57"/></g></g></svg>